<?xml version="1.0" encoding="UTF-8" standalone="no"?>
<!DOCTYPE svg PUBLIC "-//W3C//DTD SVG 1.1//EN"
 "http://www.w3.org/Graphics/SVG/1.1/DTD/svg11.dtd">
<!-- Generated by graphviz version 10.0.1 (20240210.2158)
 -->
<!-- Title: G Pages: 1 -->
<svg width="798pt" height="161pt"
 viewBox="0.00 0.00 797.75 160.75" xmlns="http://www.w3.org/2000/svg" xmlns:xlink="http://www.w3.org/1999/xlink">
<g id="graph0" class="graph" transform="scale(1 1) rotate(0) translate(4 156.75)">
<title>G</title>
<polygon fill="white" stroke="none" points="-4,4 -4,-156.75 793.75,-156.75 793.75,4 -4,4"/>
<!-- 0 -->
<g id="node1" class="node">
<title>0</title>
<ellipse fill="lightgreen" stroke="black" cx="18" cy="-47" rx="18" ry="18"/>
<text text-anchor="middle" x="18" y="-41.58" font-family="Times New Roman,serif" font-size="14.00">0</text>
</g>
<!-- 1 -->
<g id="node2" class="node">
<title>1</title>
<ellipse fill="none" stroke="black" cx="119.25" cy="-20" rx="27" ry="18"/>
<text text-anchor="middle" x="119.25" y="-14.57" font-family="Times New Roman,serif" font-size="14.00">1</text>
</g>
<!-- 0&#45;&gt;1 -->
<g id="edge1" class="edge">
<title>0&#45;&gt;1</title>
<path fill="none" stroke="lightcoral" d="M35.84,-42.42C48.78,-38.9 67.1,-33.91 83.19,-29.54"/>
<polygon fill="lightcoral" stroke="lightcoral" points="83.68,-33.03 92.41,-27.03 81.85,-26.28 83.68,-33.03"/>
<text text-anchor="middle" x="64.12" y="-39.45" font-family="Times New Roman,serif" font-size="14.00">101</text>
</g>
<!-- 2 -->
<g id="node3" class="node">
<title>2</title>
<ellipse fill="none" stroke="black" cx="229.5" cy="-74" rx="27" ry="18"/>
<text text-anchor="middle" x="229.5" y="-68.58" font-family="Times New Roman,serif" font-size="14.00">2</text>
</g>
<!-- 0&#45;&gt;2 -->
<g id="edge2" class="edge">
<title>0&#45;&gt;2</title>
<path fill="none" stroke="black" d="M35.59,-52.4C41.36,-54.11 47.92,-55.84 54,-57 100.75,-65.88 155.47,-70.25 191,-72.31"/>
<polygon fill="black" stroke="black" points="190.59,-75.8 200.76,-72.84 190.97,-68.81 190.59,-75.8"/>
<text text-anchor="middle" x="119.25" y="-72.45" font-family="Times New Roman,serif" font-size="14.00">103</text>
</g>
<!-- 3 -->
<g id="node6" class="node">
<title>3</title>
<ellipse fill="none" stroke="black" cx="229.5" cy="-20" rx="27" ry="18"/>
<text text-anchor="middle" x="229.5" y="-14.57" font-family="Times New Roman,serif" font-size="14.00">3</text>
</g>
<!-- 1&#45;&gt;3 -->
<g id="edge5" class="edge">
<title>1&#45;&gt;3</title>
<path fill="none" stroke="lightcoral" d="M146.73,-20C160.07,-20 176.46,-20 191.06,-20"/>
<polygon fill="lightcoral" stroke="lightcoral" points="190.78,-23.5 200.78,-20 190.78,-16.5 190.78,-23.5"/>
<text text-anchor="middle" x="174.38" y="-22.45" font-family="Times New Roman,serif" font-size="14.00">102</text>
</g>
<!-- 4 -->
<g id="node4" class="node">
<title>4</title>
<ellipse fill="lightcoral" stroke="black" cx="330.75" cy="-48" rx="18" ry="18"/>
<text text-anchor="middle" x="330.75" y="-42.58" font-family="Times New Roman,serif" font-size="14.00">4</text>
</g>
<!-- 2&#45;&gt;4 -->
<g id="edge3" class="edge">
<title>2&#45;&gt;4</title>
<path fill="none" stroke="black" d="M255.03,-67.57C269.26,-63.85 287.21,-59.14 301.95,-55.28"/>
<polygon fill="black" stroke="black" points="302.71,-58.7 311.49,-52.78 300.93,-51.93 302.71,-58.7"/>
<text text-anchor="middle" x="284.62" y="-64.45" font-family="Times New Roman,serif" font-size="14.00">104</text>
</g>
<!-- 5 -->
<g id="node5" class="node">
<title>5</title>
<ellipse fill="none" stroke="black" cx="762.75" cy="-78" rx="27" ry="18"/>
<text text-anchor="middle" x="762.75" y="-72.58" font-family="Times New Roman,serif" font-size="14.00">5</text>
</g>
<!-- 2&#45;&gt;5 -->
<g id="edge4" class="edge">
<title>2&#45;&gt;5</title>
<path fill="none" stroke="black" d="M243.9,-89.57C261.53,-108.23 294.44,-137 329.75,-137 329.75,-137 329.75,-137 653.5,-137 685.61,-137 717.26,-116.74 737.96,-99.96"/>
<polygon fill="black" stroke="black" points="740.15,-102.7 745.51,-93.56 735.62,-97.36 740.15,-102.7"/>
<text text-anchor="middle" x="487.12" y="-139.45" font-family="Times New Roman,serif" font-size="14.00">113</text>
</g>
<!-- 4&#45;&gt;5 -->
<g id="edge7" class="edge">
<title>4&#45;&gt;5</title>
<path fill="none" stroke="black" d="M345.21,-36.62C363.42,-22.43 397.5,0 431,0 431,0 431,0 653.5,0 690.51,0 723.49,-30.39 743.06,-53.23"/>
<polygon fill="black" stroke="black" points="740.11,-55.15 749.16,-60.67 745.52,-50.72 740.11,-55.15"/>
<text text-anchor="middle" x="542.25" y="-2.45" font-family="Times New Roman,serif" font-size="14.00">105</text>
</g>
<!-- 8 -->
<g id="node7" class="node">
<title>8</title>
<ellipse fill="none" stroke="black" cx="432" cy="-48" rx="27" ry="18"/>
<text text-anchor="middle" x="432" y="-42.58" font-family="Times New Roman,serif" font-size="14.00">8</text>
</g>
<!-- 4&#45;&gt;8 -->
<g id="edge8" class="edge">
<title>4&#45;&gt;8</title>
<path fill="none" stroke="black" d="M349.04,-48C361.25,-48 378.1,-48 393.34,-48"/>
<polygon fill="black" stroke="black" points="393.07,-51.5 403.07,-48 393.07,-44.5 393.07,-51.5"/>
<text text-anchor="middle" x="376.88" y="-50.45" font-family="Times New Roman,serif" font-size="14.00">108</text>
</g>
<!-- 3&#45;&gt;4 -->
<g id="edge6" class="edge">
<title>3&#45;&gt;4</title>
<path fill="none" stroke="lightcoral" d="M254.78,-26.85C269.09,-30.89 287.24,-36.01 302.1,-40.2"/>
<polygon fill="lightcoral" stroke="lightcoral" points="301.14,-43.57 311.72,-42.91 303.04,-36.83 301.14,-43.57"/>
<text text-anchor="middle" x="284.62" y="-40.45" font-family="Times New Roman,serif" font-size="14.00">106</text>
</g>
<!-- 8&#45;&gt;3 -->
<g id="edge9" class="edge">
<title>8&#45;&gt;3</title>
<path fill="none" stroke="black" d="M412.43,-35.03C396.41,-24.67 372.2,-10.98 348.75,-5.25 320.94,1.54 288.65,-3.31 264.85,-9.21"/>
<polygon fill="black" stroke="black" points="264.11,-5.79 255.36,-11.76 265.93,-12.55 264.11,-5.79"/>
<text text-anchor="middle" x="330.75" y="-8.45" font-family="Times New Roman,serif" font-size="14.00">107</text>
</g>
<!-- 7 -->
<g id="node8" class="node">
<title>7</title>
<ellipse fill="none" stroke="black" cx="542.25" cy="-52" rx="27" ry="18"/>
<text text-anchor="middle" x="542.25" y="-46.58" font-family="Times New Roman,serif" font-size="14.00">7</text>
</g>
<!-- 8&#45;&gt;7 -->
<g id="edge10" class="edge">
<title>8&#45;&gt;7</title>
<path fill="none" stroke="black" d="M459.2,-48.97C472.54,-49.46 488.98,-50.07 503.63,-50.61"/>
<polygon fill="black" stroke="black" points="503.28,-54.1 513.4,-50.97 503.54,-47.1 503.28,-54.1"/>
<text text-anchor="middle" x="487.12" y="-53.45" font-family="Times New Roman,serif" font-size="14.00">109</text>
</g>
<!-- 6 -->
<g id="node9" class="node">
<title>6</title>
<ellipse fill="none" stroke="black" cx="652.5" cy="-78" rx="27" ry="18"/>
<text text-anchor="middle" x="652.5" y="-72.58" font-family="Times New Roman,serif" font-size="14.00">6</text>
</g>
<!-- 7&#45;&gt;6 -->
<g id="edge11" class="edge">
<title>7&#45;&gt;6</title>
<path fill="none" stroke="black" d="M568.08,-57.96C582.25,-61.37 600.24,-65.69 615.89,-69.45"/>
<polygon fill="black" stroke="black" points="614.77,-72.78 625.31,-71.71 616.4,-65.97 614.77,-72.78"/>
<text text-anchor="middle" x="597.38" y="-70.45" font-family="Times New Roman,serif" font-size="14.00">110</text>
</g>
<!-- 6&#45;&gt;4 -->
<g id="edge12" class="edge">
<title>6&#45;&gt;4</title>
<path fill="none" stroke="black" d="M625.97,-82.08C619.93,-82.88 613.5,-83.59 607.5,-84 598.52,-84.61 596.25,-84.22 587.25,-84 506.18,-82 485.56,-84.32 405,-75 387.83,-73.01 382.98,-73.93 366.75,-68 363.2,-66.7 359.59,-65.06 356.1,-63.28"/>
<polygon fill="black" stroke="black" points="357.95,-60.31 347.52,-58.47 354.53,-66.41 357.95,-60.31"/>
<text text-anchor="middle" x="487.12" y="-84.45" font-family="Times New Roman,serif" font-size="14.00">111</text>
</g>
<!-- 6&#45;&gt;5 -->
<g id="edge13" class="edge">
<title>6&#45;&gt;5</title>
<path fill="none" stroke="black" d="M679.98,-78C693.32,-78 709.71,-78 724.31,-78"/>
<polygon fill="black" stroke="black" points="724.03,-81.5 734.03,-78 724.03,-74.5 724.03,-81.5"/>
<text text-anchor="middle" x="707.62" y="-80.45" font-family="Times New Roman,serif" font-size="14.00">112</text>
</g>
</g>
</svg>
