<?xml version="1.0" encoding="UTF-8" standalone="no"?>
<!DOCTYPE svg PUBLIC "-//W3C//DTD SVG 1.1//EN"
 "http://www.w3.org/Graphics/SVG/1.1/DTD/svg11.dtd">
<!-- Generated by graphviz version 10.0.1 (20240210.2158)
 -->
<!-- Title: G Pages: 1 -->
<svg width="595pt" height="128pt"
 viewBox="0.00 0.00 595.25 127.75" xmlns="http://www.w3.org/2000/svg" xmlns:xlink="http://www.w3.org/1999/xlink">
<g id="graph0" class="graph" transform="scale(1 1) rotate(0) translate(4 123.75)">
<title>G</title>
<polygon fill="white" stroke="none" points="-4,4 -4,-123.75 591.25,-123.75 591.25,4 -4,4"/>
<!-- 0 -->
<g id="node1" class="node">
<title>0</title>
<ellipse fill="lightgreen" stroke="black" cx="18" cy="-38" rx="18" ry="18"/>
<text text-anchor="middle" x="18" y="-32.58" font-family="Times New Roman,serif" font-size="14.00">0</text>
</g>
<!-- 1 -->
<g id="node2" class="node">
<title>1</title>
<ellipse fill="none" stroke="black" cx="119.25" cy="-70" rx="27" ry="18"/>
<text text-anchor="middle" x="119.25" y="-64.58" font-family="Times New Roman,serif" font-size="14.00">1</text>
</g>
<!-- 0&#45;&gt;1 -->
<g id="edge1" class="edge">
<title>0&#45;&gt;1</title>
<path fill="none" stroke="lightcoral" d="M35.39,-43.28C48.45,-47.5 67.2,-53.54 83.56,-58.82"/>
<polygon fill="lightcoral" stroke="lightcoral" points="82.37,-62.11 92.97,-61.85 84.52,-55.45 82.37,-62.11"/>
<text text-anchor="middle" x="64.12" y="-56.45" font-family="Times New Roman,serif" font-size="14.00">101</text>
</g>
<!-- 3 -->
<g id="node3" class="node">
<title>3</title>
<ellipse fill="none" stroke="black" cx="339.75" cy="-18" rx="27" ry="18"/>
<text text-anchor="middle" x="339.75" y="-12.57" font-family="Times New Roman,serif" font-size="14.00">3</text>
</g>
<!-- 0&#45;&gt;3 -->
<g id="edge2" class="edge">
<title>0&#45;&gt;3</title>
<path fill="none" stroke="black" d="M36.19,-36.92C86.1,-33.8 231.85,-24.69 301.22,-20.35"/>
<polygon fill="black" stroke="black" points="301.18,-23.86 310.95,-19.74 300.75,-16.87 301.18,-23.86"/>
<text text-anchor="middle" x="174.38" y="-31.45" font-family="Times New Roman,serif" font-size="14.00">103</text>
</g>
<!-- 2 -->
<g id="node4" class="node">
<title>2</title>
<ellipse fill="none" stroke="black" cx="229.5" cy="-72" rx="27" ry="18"/>
<text text-anchor="middle" x="229.5" y="-66.58" font-family="Times New Roman,serif" font-size="14.00">2</text>
</g>
<!-- 1&#45;&gt;2 -->
<g id="edge3" class="edge">
<title>1&#45;&gt;2</title>
<path fill="none" stroke="lightcoral" d="M146.73,-70.49C160.07,-70.74 176.46,-71.04 191.06,-71.31"/>
<polygon fill="lightcoral" stroke="lightcoral" points="190.72,-74.8 200.78,-71.49 190.85,-67.8 190.72,-74.8"/>
<text text-anchor="middle" x="174.38" y="-73.45" font-family="Times New Roman,serif" font-size="14.00">102</text>
</g>
<!-- 4 -->
<g id="node5" class="node">
<title>4</title>
<ellipse fill="none" stroke="black" cx="560.25" cy="-62" rx="27" ry="18"/>
<text text-anchor="middle" x="560.25" y="-56.58" font-family="Times New Roman,serif" font-size="14.00">4</text>
</g>
<!-- 3&#45;&gt;4 -->
<g id="edge6" class="edge">
<title>3&#45;&gt;4</title>
<path fill="none" stroke="black" d="M366.56,-14.71C394.3,-11.98 439.47,-9.9 477,-19.25 496.21,-24.04 515.96,-34.1 531.29,-43.26"/>
<polygon fill="black" stroke="black" points="529.04,-45.99 539.38,-48.29 532.73,-40.04 529.04,-45.99"/>
<text text-anchor="middle" x="450" y="-22.45" font-family="Times New Roman,serif" font-size="14.00">104</text>
</g>
<!-- 5 -->
<g id="node7" class="node">
<title>5</title>
<ellipse fill="none" stroke="black" cx="450" cy="-62" rx="27" ry="18"/>
<text text-anchor="middle" x="450" y="-56.58" font-family="Times New Roman,serif" font-size="14.00">5</text>
</g>
<!-- 3&#45;&gt;5 -->
<g id="edge7" class="edge">
<title>3&#45;&gt;5</title>
<path fill="none" stroke="black" d="M363.44,-27.22C378.6,-33.38 398.78,-41.59 415.74,-48.48"/>
<polygon fill="black" stroke="black" points="414.35,-51.7 424.93,-52.22 416.99,-45.21 414.35,-51.7"/>
<text text-anchor="middle" x="394.88" y="-46.45" font-family="Times New Roman,serif" font-size="14.00">105</text>
</g>
<!-- 2&#45;&gt;4 -->
<g id="edge4" class="edge">
<title>2&#45;&gt;4</title>
<path fill="none" stroke="black" d="M251.57,-82.85C258.7,-86.18 266.81,-89.59 274.5,-92 290.99,-97.17 295.54,-97.44 312.75,-99 402.7,-107.16 429.07,-109.02 515.25,-82 519.33,-80.72 523.54,-79.16 527.65,-77.47"/>
<polygon fill="black" stroke="black" points="529.04,-80.68 536.79,-73.46 526.23,-74.27 529.04,-80.68"/>
<text text-anchor="middle" x="394.88" y="-106.45" font-family="Times New Roman,serif" font-size="14.00">109</text>
</g>
<!-- 6 -->
<g id="node6" class="node">
<title>6</title>
<ellipse fill="lightcoral" stroke="black" cx="339.75" cy="-72" rx="18" ry="18"/>
<text text-anchor="middle" x="339.75" y="-66.58" font-family="Times New Roman,serif" font-size="14.00">6</text>
</g>
<!-- 2&#45;&gt;6 -->
<g id="edge5" class="edge">
<title>2&#45;&gt;6</title>
<path fill="none" stroke="lightcoral" d="M256.98,-72C273.1,-72 293.69,-72 310.17,-72"/>
<polygon fill="lightcoral" stroke="lightcoral" points="309.81,-75.5 319.81,-72 309.81,-68.5 309.81,-75.5"/>
<text text-anchor="middle" x="284.62" y="-74.45" font-family="Times New Roman,serif" font-size="14.00">108</text>
</g>
<!-- 6&#45;&gt;5 -->
<g id="edge9" class="edge">
<title>6&#45;&gt;5</title>
<path fill="none" stroke="black" d="M358.14,-70.39C372.46,-69.07 393.26,-67.15 411.36,-65.48"/>
<polygon fill="black" stroke="black" points="411.61,-68.97 421.25,-64.56 410.97,-62 411.61,-68.97"/>
<text text-anchor="middle" x="394.88" y="-69.45" font-family="Times New Roman,serif" font-size="14.00">106</text>
</g>
<!-- 5&#45;&gt;4 -->
<g id="edge8" class="edge">
<title>5&#45;&gt;4</title>
<path fill="none" stroke="black" d="M477.48,-62C490.82,-62 507.21,-62 521.81,-62"/>
<polygon fill="black" stroke="black" points="521.53,-65.5 531.53,-62 521.53,-58.5 521.53,-65.5"/>
<text text-anchor="middle" x="505.12" y="-64.45" font-family="Times New Roman,serif" font-size="14.00">107</text>
</g>
</g>
</svg>
