<?xml version="1.0" encoding="UTF-8" standalone="no"?>
<!DOCTYPE svg PUBLIC "-//W3C//DTD SVG 1.1//EN"
 "http://www.w3.org/Graphics/SVG/1.1/DTD/svg11.dtd">
<!-- Generated by graphviz version 10.0.1 (20240210.2158)
 -->
<!-- Title: G Pages: 1 -->
<svg width="798pt" height="161pt"
 viewBox="0.00 0.00 797.75 160.75" xmlns="http://www.w3.org/2000/svg" xmlns:xlink="http://www.w3.org/1999/xlink">
<g id="graph0" class="graph" transform="scale(1 1) rotate(0) translate(4 156.75)">
<title>G</title>
<polygon fill="white" stroke="none" points="-4,4 -4,-156.75 793.75,-156.75 793.75,4 -4,4"/>
<!-- 0 -->
<g id="node1" class="node">
<title>0</title>
<ellipse fill="lightgreen" stroke="black" cx="18" cy="-47" rx="18" ry="18"/>
<text text-anchor="middle" x="18" y="-41.58" font-family="Times New Roman,serif" font-size="14.00">0</text>
</g>
<!-- 1 -->
<g id="node2" class="node">
<title>1</title>
<ellipse fill="none" stroke="black" cx="119.25" cy="-20" rx="27" ry="18"/>
<text text-anchor="middle" x="119.25" y="-14.57" font-family="Times New Roman,serif" font-size="14.00">1</text>
</g>
<!-- 0&#45;&gt;1 -->
<g id="edge1" class="edge">
<title>0&#45;&gt;1</title>
<path fill="none" stroke="lightcoral" d="M35.84,-42.42C48.78,-38.9 67.1,-33.91 83.19,-29.54"/>
<polygon fill="lightcoral" stroke="lightcoral" points="83.68,-33.03 92.41,-27.03 81.85,-26.28 83.68,-33.03"/>
<text text-anchor="middle" x="64.12" y="-39.45" font-family="Times New Roman,serif" font-size="14.00">101</text>
</g>
<!-- 2 -->
<g id="node3" class="node">
<title>2</title>
<ellipse fill="none" stroke="black" cx="229.5" cy="-74" rx="27" ry="18"/>
<text text-anchor="middle" x="229.5" y="-68.58" font-family="Times New Roman,serif" font-size="14.00">2</text>
</g>
<!-- 0&#45;&gt;2 -->
<g id="edge2" class="edge">
<title>0&#45;&gt;2</title>
<path fill="none" stroke="black" d="M35.59,-52.4C41.36,-54.11 47.92,-55.84 54,-57 100.75,-65.88 155.47,-70.25 191,-72.31"/>
<polygon fill="black" stroke="black" points="190.59,-75.8 200.76,-72.84 190.97,-68.81 190.59,-75.8"/>
<text text-anchor="middle" x="119.25" y="-72.45" font-family="Times New Roman,serif" font-size="14.00">103</text>
</g>
<!-- 3 -->
<g id="node6" class="node">
<title>3</title>
<ellipse fill="none" stroke="black" cx="229.5" cy="-20" rx="27" ry="18"/>
<text text-anchor="middle" x="229.5" y="-14.57" font-family="Times New Roman,serif" font-size="14.00">3</text>
</g>
<!-- 1&#45;&gt;3 -->
<g id="edge5" class="edge">
<title>1&#45;&gt;3</title>
<path fill="none" stroke="lightcoral" d="M146.73,-20C160.07,-20 176.46,-20 191.06,-20"/>
<polygon fill="lightcoral" stroke="lightcoral" points="190.78,-23.5 200.78,-20 190.78,-16.5 190.78,-23.5"/>
<text text-anchor="middle" x="174.38" y="-22.45" font-family="Times New Roman,serif" font-size="14.00">102</text>
</g>
<!-- 4 -->
<g id="node4" class="node">
<title>4</title>
<ellipse fill="none" stroke="black" cx="339.75" cy="-48" rx="27" ry="18"/>
<text text-anchor="middle" x="339.75" y="-42.58" font-family="Times New Roman,serif" font-size="14.00">4</text>
</g>
<!-- 2&#45;&gt;4 -->
<g id="edge3" class="edge">
<title>2&#45;&gt;4</title>
<path fill="none" stroke="black" d="M255.33,-68.04C269.5,-64.63 287.49,-60.31 303.14,-56.55"/>
<polygon fill="black" stroke="black" points="303.65,-60.03 312.56,-54.29 302.02,-53.22 303.65,-60.03"/>
<text text-anchor="middle" x="284.62" y="-66.45" font-family="Times New Roman,serif" font-size="14.00">104</text>
</g>
<!-- 5 -->
<g id="node5" class="node">
<title>5</title>
<ellipse fill="none" stroke="black" cx="762.75" cy="-78" rx="27" ry="18"/>
<text text-anchor="middle" x="762.75" y="-72.58" font-family="Times New Roman,serif" font-size="14.00">5</text>
</g>
<!-- 2&#45;&gt;5 -->
<g id="edge4" class="edge">
<title>2&#45;&gt;5</title>
<path fill="none" stroke="black" d="M245.06,-89.25C264.5,-107.9 300.91,-137 338.75,-137 338.75,-137 338.75,-137 662.5,-137 691.96,-137 720.3,-117.56 739.1,-101"/>
<polygon fill="black" stroke="black" points="741.46,-103.58 746.42,-94.22 736.7,-98.45 741.46,-103.58"/>
<text text-anchor="middle" x="505.12" y="-139.45" font-family="Times New Roman,serif" font-size="14.00">113</text>
</g>
<!-- 4&#45;&gt;5 -->
<g id="edge7" class="edge">
<title>4&#45;&gt;5</title>
<path fill="none" stroke="black" d="M358.46,-34.63C379.06,-20.43 414.67,0 449,0 449,0 449,0 662.5,0 697.02,0 726.63,-29.52 744.31,-52.24"/>
<polygon fill="black" stroke="black" points="741.47,-54.29 750.23,-60.24 747.09,-50.12 741.47,-54.29"/>
<text text-anchor="middle" x="560.25" y="-2.45" font-family="Times New Roman,serif" font-size="14.00">105</text>
</g>
<!-- 8 -->
<g id="node7" class="node">
<title>8</title>
<ellipse fill="none" stroke="black" cx="450" cy="-48" rx="27" ry="18"/>
<text text-anchor="middle" x="450" y="-42.58" font-family="Times New Roman,serif" font-size="14.00">8</text>
</g>
<!-- 4&#45;&gt;8 -->
<g id="edge8" class="edge">
<title>4&#45;&gt;8</title>
<path fill="none" stroke="lightcoral" d="M367.23,-48C380.57,-48 396.96,-48 411.56,-48"/>
<polygon fill="lightcoral" stroke="lightcoral" points="411.28,-51.5 421.28,-48 411.28,-44.5 411.28,-51.5"/>
<text text-anchor="middle" x="394.88" y="-50.45" font-family="Times New Roman,serif" font-size="14.00">108</text>
</g>
<!-- 3&#45;&gt;4 -->
<g id="edge6" class="edge">
<title>3&#45;&gt;4</title>
<path fill="none" stroke="lightcoral" d="M255.06,-26.35C269.32,-30.04 287.52,-34.75 303.31,-38.83"/>
<polygon fill="lightcoral" stroke="lightcoral" points="302.26,-42.18 312.82,-41.29 304.01,-35.4 302.26,-42.18"/>
<text text-anchor="middle" x="284.62" y="-39.45" font-family="Times New Roman,serif" font-size="14.00">106</text>
</g>
<!-- 8&#45;&gt;3 -->
<g id="edge9" class="edge">
<title>8&#45;&gt;3</title>
<path fill="none" stroke="black" d="M430.43,-35.03C414.41,-24.67 390.2,-10.98 366.75,-5.25 332.98,3 293.37,-2.97 265.59,-9.62"/>
<polygon fill="black" stroke="black" points="264.74,-6.22 255.92,-12.1 266.48,-13 264.74,-6.22"/>
<text text-anchor="middle" x="339.75" y="-8.45" font-family="Times New Roman,serif" font-size="14.00">107</text>
</g>
<!-- 7 -->
<g id="node8" class="node">
<title>7</title>
<ellipse fill="none" stroke="black" cx="560.25" cy="-52" rx="27" ry="18"/>
<text text-anchor="middle" x="560.25" y="-46.58" font-family="Times New Roman,serif" font-size="14.00">7</text>
</g>
<!-- 8&#45;&gt;7 -->
<g id="edge10" class="edge">
<title>8&#45;&gt;7</title>
<path fill="none" stroke="lightcoral" d="M477.2,-48.97C490.54,-49.46 506.98,-50.07 521.63,-50.61"/>
<polygon fill="lightcoral" stroke="lightcoral" points="521.28,-54.1 531.4,-50.97 521.54,-47.1 521.28,-54.1"/>
<text text-anchor="middle" x="505.12" y="-53.45" font-family="Times New Roman,serif" font-size="14.00">109</text>
</g>
<!-- 6 -->
<g id="node9" class="node">
<title>6</title>
<ellipse fill="lightcoral" stroke="black" cx="661.5" cy="-78" rx="18" ry="18"/>
<text text-anchor="middle" x="661.5" y="-72.58" font-family="Times New Roman,serif" font-size="14.00">6</text>
</g>
<!-- 7&#45;&gt;6 -->
<g id="edge11" class="edge">
<title>7&#45;&gt;6</title>
<path fill="none" stroke="lightcoral" d="M586,-58.11C597.95,-61.1 612.49,-64.79 625.5,-68.25 627.93,-68.89 630.45,-69.57 632.97,-70.26"/>
<polygon fill="lightcoral" stroke="lightcoral" points="631.76,-73.56 642.33,-72.85 633.62,-66.81 631.76,-73.56"/>
<text text-anchor="middle" x="615.38" y="-71.45" font-family="Times New Roman,serif" font-size="14.00">110</text>
</g>
<!-- 6&#45;&gt;4 -->
<g id="edge12" class="edge">
<title>6&#45;&gt;4</title>
<path fill="none" stroke="black" d="M643.48,-81.51C637.79,-82.53 631.4,-83.5 625.5,-84 616.53,-84.76 614.25,-84.22 605.25,-84 524.18,-82 503.56,-84.32 423,-75 405.83,-73.01 401.24,-73.17 384.75,-68 380.67,-66.72 376.46,-65.16 372.35,-63.47"/>
<polygon fill="black" stroke="black" points="373.77,-60.27 363.21,-59.46 370.96,-66.68 373.77,-60.27"/>
<text text-anchor="middle" x="505.12" y="-84.45" font-family="Times New Roman,serif" font-size="14.00">111</text>
</g>
<!-- 6&#45;&gt;5 -->
<g id="edge13" class="edge">
<title>6&#45;&gt;5</title>
<path fill="none" stroke="black" d="M679.79,-78C692,-78 708.85,-78 724.09,-78"/>
<polygon fill="black" stroke="black" points="723.82,-81.5 733.82,-78 723.82,-74.5 723.82,-81.5"/>
<text text-anchor="middle" x="707.62" y="-80.45" font-family="Times New Roman,serif" font-size="14.00">112</text>
</g>
</g>
</svg>
