<?xml version="1.0" encoding="UTF-8" standalone="no"?>
<!DOCTYPE svg PUBLIC "-//W3C//DTD SVG 1.1//EN"
 "http://www.w3.org/Graphics/SVG/1.1/DTD/svg11.dtd">
<!-- Generated by graphviz version 10.0.1 (20240210.2158)
 -->
<!-- Title: G Pages: 1 -->
<svg width="624pt" height="634pt"
 viewBox="0.00 0.00 624.00 634.02" xmlns="http://www.w3.org/2000/svg" xmlns:xlink="http://www.w3.org/1999/xlink">
<g id="graph0" class="graph" transform="scale(1 1) rotate(0) translate(4 630.02)">
<title>G</title>
<polygon fill="white" stroke="none" points="-4,4 -4,-630.02 620,-630.02 620,4 -4,4"/>
<!-- 101 -->
<g id="node1" class="node">
<title>101</title>
<polygon fill="white" stroke="black" points="90.12,-403.26 53.88,-403.26 53.88,-367.01 90.12,-367.01 90.12,-403.26"/>
<text text-anchor="middle" x="72" y="-379.71" font-family="Times New Roman,serif" font-size="14.00">101</text>
</g>
<!-- 3 -->
<g id="node4" class="node">
<title>3</title>
<ellipse fill="white" stroke="black" cx="156" cy="-311.38" rx="27" ry="18"/>
<text text-anchor="middle" x="156" y="-305.96" font-family="Times New Roman,serif" font-size="14.00">3</text>
</g>
<!-- 101&#45;&gt;3 -->
<g id="edge3" class="edge">
<title>101&#45;&gt;3</title>
<path fill="none" stroke="black" d="M90.23,-368.56C102.22,-358.32 118.08,-344.77 131.22,-333.55"/>
<polygon fill="black" stroke="black" points="133.31,-336.36 138.65,-327.21 128.77,-331.04 133.31,-336.36"/>
</g>
<!-- 1 -->
<g id="node2" class="node">
<title>1</title>
<ellipse fill="lightgreen" stroke="black" cx="72" cy="-458.89" rx="18" ry="18"/>
<text text-anchor="middle" x="72" y="-453.46" font-family="Times New Roman,serif" font-size="14.00">1</text>
</g>
<!-- 1&#45;&gt;101 -->
<g id="edge1" class="edge">
<title>1&#45;&gt;101</title>
<path fill="none" stroke="black" d="M72,-440.52C72,-432.82 72,-423.55 72,-414.87"/>
<polygon fill="black" stroke="black" points="75.5,-415.11 72,-405.11 68.5,-415.11 75.5,-415.11"/>
</g>
<!-- 2 -->
<g id="node3" class="node">
<title>2</title>
<ellipse fill="lightgreen" stroke="black" cx="18" cy="-458.89" rx="18" ry="18"/>
<text text-anchor="middle" x="18" y="-453.46" font-family="Times New Roman,serif" font-size="14.00">2</text>
</g>
<!-- 2&#45;&gt;101 -->
<g id="edge2" class="edge">
<title>2&#45;&gt;101</title>
<path fill="none" stroke="black" d="M28.41,-444.05C35.1,-435.17 44,-423.34 52.01,-412.7"/>
<polygon fill="black" stroke="black" points="54.62,-415.05 57.84,-404.95 49.03,-410.84 54.62,-415.05"/>
</g>
<!-- 102 -->
<g id="node5" class="node">
<title>102</title>
<polygon fill="white" stroke="black" points="213.12,-255.75 176.88,-255.75 176.88,-219.5 213.12,-219.5 213.12,-255.75"/>
<text text-anchor="middle" x="195" y="-232.2" font-family="Times New Roman,serif" font-size="14.00">102</text>
</g>
<!-- 2&#45;&gt;102 -->
<g id="edge5" class="edge">
<title>2&#45;&gt;102</title>
<path fill="none" stroke="black" d="M20.49,-440.8C23.83,-421.73 31.04,-390.5 45,-367.01 75.21,-316.19 132.8,-275.57 167.16,-254.48"/>
<polygon fill="black" stroke="black" points="168.54,-257.74 175.31,-249.59 164.94,-251.73 168.54,-257.74"/>
</g>
<!-- 3&#45;&gt;102 -->
<g id="edge4" class="edge">
<title>3&#45;&gt;102</title>
<path fill="none" stroke="black" d="M164.85,-294.1C169.37,-285.78 175,-275.43 180.16,-265.94"/>
<polygon fill="black" stroke="black" points="183.08,-267.89 184.78,-257.43 176.93,-264.54 183.08,-267.89"/>
</g>
<!-- 7 -->
<g id="node7" class="node">
<title>7</title>
<ellipse fill="lightgreen" stroke="black" cx="273" cy="-165.5" rx="18" ry="18"/>
<text text-anchor="middle" x="273" y="-160.08" font-family="Times New Roman,serif" font-size="14.00">7</text>
</g>
<!-- 102&#45;&gt;7 -->
<g id="edge7" class="edge">
<title>102&#45;&gt;7</title>
<path fill="none" stroke="black" d="M213.48,-220.01C224.83,-209.81 239.41,-196.7 251.3,-186.01"/>
<polygon fill="black" stroke="black" points="253.55,-188.7 258.65,-179.41 248.87,-183.49 253.55,-188.7"/>
</g>
<!-- 4 -->
<g id="node6" class="node">
<title>4</title>
<ellipse fill="white" stroke="black" cx="249" cy="-311.38" rx="27" ry="18"/>
<text text-anchor="middle" x="249" y="-305.96" font-family="Times New Roman,serif" font-size="14.00">4</text>
</g>
<!-- 4&#45;&gt;102 -->
<g id="edge6" class="edge">
<title>4&#45;&gt;102</title>
<path fill="none" stroke="black" d="M237.28,-294.81C230.79,-286.19 222.55,-275.24 215.07,-265.3"/>
<polygon fill="black" stroke="black" points="217.93,-263.28 209.12,-257.39 212.34,-267.49 217.93,-263.28"/>
</g>
<!-- 106 -->
<g id="node17" class="node">
<title>106</title>
<polygon fill="white" stroke="black" points="338.12,-255.75 301.88,-255.75 301.88,-219.5 338.12,-219.5 338.12,-255.75"/>
<text text-anchor="middle" x="320" y="-232.2" font-family="Times New Roman,serif" font-size="14.00">106</text>
</g>
<!-- 4&#45;&gt;106 -->
<g id="edge17" class="edge">
<title>4&#45;&gt;106</title>
<path fill="none" stroke="black" d="M263.37,-295.86C272.32,-286.81 284.09,-274.92 294.58,-264.32"/>
<polygon fill="black" stroke="black" points="297.03,-266.82 301.58,-257.25 292.06,-261.89 297.03,-266.82"/>
</g>
<!-- 105 -->
<g id="node14" class="node">
<title>105</title>
<polygon fill="white" stroke="black" points="333.12,-111.5 296.88,-111.5 296.88,-75.25 333.12,-75.25 333.12,-111.5"/>
<text text-anchor="middle" x="315" y="-87.95" font-family="Times New Roman,serif" font-size="14.00">105</text>
</g>
<!-- 7&#45;&gt;105 -->
<g id="edge14" class="edge">
<title>7&#45;&gt;105</title>
<path fill="none" stroke="black" d="M281.91,-149.63C286.75,-141.54 292.9,-131.28 298.58,-121.8"/>
<polygon fill="black" stroke="black" points="301.56,-123.63 303.7,-113.25 295.55,-120.04 301.56,-123.63"/>
</g>
<!-- 103 -->
<g id="node8" class="node">
<title>103</title>
<polygon fill="white" stroke="black" points="288.12,-403.26 251.88,-403.26 251.88,-367.01 288.12,-367.01 288.12,-403.26"/>
<text text-anchor="middle" x="270" y="-379.71" font-family="Times New Roman,serif" font-size="14.00">103</text>
</g>
<!-- 103&#45;&gt;4 -->
<g id="edge10" class="edge">
<title>103&#45;&gt;4</title>
<path fill="none" stroke="black" d="M264.92,-366.76C262.56,-358.72 259.7,-348.96 257.06,-339.94"/>
<polygon fill="black" stroke="black" points="260.49,-339.16 254.32,-330.55 253.77,-341.13 260.49,-339.16"/>
</g>
<!-- 5 -->
<g id="node9" class="node">
<title>5</title>
<ellipse fill="lightgreen" stroke="black" cx="270" cy="-458.89" rx="18" ry="18"/>
<text text-anchor="middle" x="270" y="-453.46" font-family="Times New Roman,serif" font-size="14.00">5</text>
</g>
<!-- 5&#45;&gt;103 -->
<g id="edge8" class="edge">
<title>5&#45;&gt;103</title>
<path fill="none" stroke="black" d="M270,-440.52C270,-432.82 270,-423.55 270,-414.87"/>
<polygon fill="black" stroke="black" points="273.5,-415.11 270,-405.11 266.5,-415.11 273.5,-415.11"/>
</g>
<!-- 6 -->
<g id="node10" class="node">
<title>6</title>
<ellipse fill="lightgreen" stroke="black" cx="324" cy="-458.89" rx="18" ry="18"/>
<text text-anchor="middle" x="324" y="-453.46" font-family="Times New Roman,serif" font-size="14.00">6</text>
</g>
<!-- 6&#45;&gt;103 -->
<g id="edge9" class="edge">
<title>6&#45;&gt;103</title>
<path fill="none" stroke="black" d="M313.59,-444.05C306.9,-435.17 298,-423.34 289.99,-412.7"/>
<polygon fill="black" stroke="black" points="292.97,-410.84 284.16,-404.95 287.38,-415.05 292.97,-410.84"/>
</g>
<!-- 104 -->
<g id="node11" class="node">
<title>104</title>
<polygon fill="white" stroke="black" points="174.12,-403.26 137.88,-403.26 137.88,-367.01 174.12,-367.01 174.12,-403.26"/>
<text text-anchor="middle" x="156" y="-379.71" font-family="Times New Roman,serif" font-size="14.00">104</text>
</g>
<!-- 104&#45;&gt;3 -->
<g id="edge13" class="edge">
<title>104&#45;&gt;3</title>
<path fill="none" stroke="black" d="M156,-366.76C156,-359.07 156,-349.8 156,-341.12"/>
<polygon fill="black" stroke="black" points="159.5,-341.35 156,-331.35 152.5,-341.35 159.5,-341.35"/>
</g>
<!-- 8 -->
<g id="node12" class="node">
<title>8</title>
<ellipse fill="white" stroke="black" cx="135" cy="-458.89" rx="27" ry="18"/>
<text text-anchor="middle" x="135" y="-453.46" font-family="Times New Roman,serif" font-size="14.00">8</text>
</g>
<!-- 8&#45;&gt;104 -->
<g id="edge11" class="edge">
<title>8&#45;&gt;104</title>
<path fill="none" stroke="black" d="M139.98,-440.88C142.3,-432.96 145.12,-423.31 147.74,-414.34"/>
<polygon fill="black" stroke="black" points="151.04,-415.55 150.49,-404.97 144.32,-413.58 151.04,-415.55"/>
</g>
<!-- 23 -->
<g id="node13" class="node">
<title>23</title>
<ellipse fill="white" stroke="black" cx="207" cy="-458.89" rx="27" ry="18"/>
<text text-anchor="middle" x="207" y="-453.46" font-family="Times New Roman,serif" font-size="14.00">23</text>
</g>
<!-- 23&#45;&gt;104 -->
<g id="edge12" class="edge">
<title>23&#45;&gt;104</title>
<path fill="none" stroke="black" d="M195.93,-442.32C189.81,-433.7 182.02,-422.74 174.95,-412.8"/>
<polygon fill="black" stroke="black" points="178,-411.05 169.35,-404.92 172.3,-415.1 178,-411.05"/>
</g>
<!-- 13 -->
<g id="node16" class="node">
<title>13</title>
<ellipse fill="lightcoral" stroke="black" cx="342" cy="-19.63" rx="19.63" ry="19.63"/>
<text text-anchor="middle" x="342" y="-14.2" font-family="Times New Roman,serif" font-size="14.00">13</text>
</g>
<!-- 105&#45;&gt;13 -->
<g id="edge16" class="edge">
<title>105&#45;&gt;13</title>
<path fill="none" stroke="black" d="M321.54,-75.01C324.45,-67.25 327.97,-57.91 331.26,-49.17"/>
<polygon fill="black" stroke="black" points="334.46,-50.59 334.71,-40 327.91,-48.13 334.46,-50.59"/>
</g>
<!-- 9 -->
<g id="node15" class="node">
<title>9</title>
<ellipse fill="white" stroke="black" cx="342" cy="-165.5" rx="27" ry="18"/>
<text text-anchor="middle" x="342" y="-160.08" font-family="Times New Roman,serif" font-size="14.00">9</text>
</g>
<!-- 9&#45;&gt;105 -->
<g id="edge15" class="edge">
<title>9&#45;&gt;105</title>
<path fill="none" stroke="black" d="M335.6,-147.89C332.66,-140.25 329.1,-130.99 325.76,-122.33"/>
<polygon fill="black" stroke="black" points="329.13,-121.34 322.27,-113.27 322.6,-123.86 329.13,-121.34"/>
</g>
<!-- 109 -->
<g id="node27" class="node">
<title>109</title>
<polygon fill="white" stroke="black" points="387.12,-111.5 350.88,-111.5 350.88,-75.25 387.12,-75.25 387.12,-111.5"/>
<text text-anchor="middle" x="369" y="-87.95" font-family="Times New Roman,serif" font-size="14.00">109</text>
</g>
<!-- 9&#45;&gt;109 -->
<g id="edge27" class="edge">
<title>9&#45;&gt;109</title>
<path fill="none" stroke="black" d="M348.4,-147.89C351.34,-140.25 354.9,-130.99 358.24,-122.33"/>
<polygon fill="black" stroke="black" points="361.4,-123.86 361.73,-113.27 354.87,-121.34 361.4,-123.86"/>
</g>
<!-- 106&#45;&gt;9 -->
<g id="edge20" class="edge">
<title>106&#45;&gt;9</title>
<path fill="none" stroke="black" d="M325.44,-219.3C327.78,-211.82 330.58,-202.89 333.21,-194.52"/>
<polygon fill="black" stroke="black" points="336.52,-195.67 336.17,-185.08 329.84,-193.58 336.52,-195.67"/>
</g>
<!-- 16 -->
<g id="node18" class="node">
<title>16</title>
<ellipse fill="lightgreen" stroke="black" cx="314" cy="-311.38" rx="19.63" ry="19.63"/>
<text text-anchor="middle" x="314" y="-305.96" font-family="Times New Roman,serif" font-size="14.00">16</text>
</g>
<!-- 16&#45;&gt;106 -->
<g id="edge18" class="edge">
<title>16&#45;&gt;106</title>
<path fill="none" stroke="black" d="M315.58,-291.53C316.19,-284.16 316.91,-275.55 317.59,-267.44"/>
<polygon fill="black" stroke="black" points="321.07,-267.89 318.41,-257.63 314.09,-267.31 321.07,-267.89"/>
</g>
<!-- 10 -->
<g id="node19" class="node">
<title>10</title>
<ellipse fill="white" stroke="black" cx="379" cy="-311.38" rx="27" ry="18"/>
<text text-anchor="middle" x="379" y="-305.96" font-family="Times New Roman,serif" font-size="14.00">10</text>
</g>
<!-- 10&#45;&gt;106 -->
<g id="edge19" class="edge">
<title>10&#45;&gt;106</title>
<path fill="none" stroke="black" d="M366.49,-295.16C359.21,-286.32 349.85,-274.93 341.44,-264.7"/>
<polygon fill="black" stroke="black" points="344.38,-262.77 335.32,-257.26 338.97,-267.21 344.38,-262.77"/>
</g>
<!-- 110 -->
<g id="node28" class="node">
<title>110</title>
<polygon fill="white" stroke="black" points="397.12,-255.75 360.88,-255.75 360.88,-219.5 397.12,-219.5 397.12,-255.75"/>
<text text-anchor="middle" x="379" y="-232.2" font-family="Times New Roman,serif" font-size="14.00">110</text>
</g>
<!-- 10&#45;&gt;110 -->
<g id="edge30" class="edge">
<title>10&#45;&gt;110</title>
<path fill="none" stroke="black" d="M379,-293.01C379,-285.31 379,-276.05 379,-267.37"/>
<polygon fill="black" stroke="black" points="382.5,-267.6 379,-257.6 375.5,-267.6 382.5,-267.6"/>
</g>
<!-- 107 -->
<g id="node20" class="node">
<title>107</title>
<polygon fill="white" stroke="black" points="405.12,-403.26 368.88,-403.26 368.88,-367.01 405.12,-367.01 405.12,-403.26"/>
<text text-anchor="middle" x="387" y="-379.71" font-family="Times New Roman,serif" font-size="14.00">107</text>
</g>
<!-- 107&#45;&gt;10 -->
<g id="edge23" class="edge">
<title>107&#45;&gt;10</title>
<path fill="none" stroke="black" d="M385.06,-366.76C384.2,-359.01 383.16,-349.66 382.18,-340.93"/>
<polygon fill="black" stroke="black" points="385.67,-340.65 381.09,-331.09 378.72,-341.42 385.67,-340.65"/>
</g>
<!-- 11 -->
<g id="node21" class="node">
<title>11</title>
<ellipse fill="white" stroke="black" cx="387" cy="-458.89" rx="27" ry="18"/>
<text text-anchor="middle" x="387" y="-453.46" font-family="Times New Roman,serif" font-size="14.00">11</text>
</g>
<!-- 11&#45;&gt;107 -->
<g id="edge21" class="edge">
<title>11&#45;&gt;107</title>
<path fill="none" stroke="black" d="M387,-440.52C387,-432.82 387,-423.55 387,-414.87"/>
<polygon fill="black" stroke="black" points="390.5,-415.11 387,-405.11 383.5,-415.11 390.5,-415.11"/>
</g>
<!-- 112 -->
<g id="node32" class="node">
<title>112</title>
<polygon fill="white" stroke="black" points="469.12,-403.26 432.88,-403.26 432.88,-367.01 469.12,-367.01 469.12,-403.26"/>
<text text-anchor="middle" x="451" y="-379.71" font-family="Times New Roman,serif" font-size="14.00">112</text>
</g>
<!-- 11&#45;&gt;112 -->
<g id="edge36" class="edge">
<title>11&#45;&gt;112</title>
<path fill="none" stroke="black" d="M400.26,-443.02C408.27,-434.04 418.7,-422.35 428.01,-411.9"/>
<polygon fill="black" stroke="black" points="430.45,-414.43 434.49,-404.64 425.23,-409.77 430.45,-414.43"/>
</g>
<!-- 12 -->
<g id="node22" class="node">
<title>12</title>
<ellipse fill="lightgreen" stroke="black" cx="452" cy="-458.89" rx="19.63" ry="19.63"/>
<text text-anchor="middle" x="452" y="-453.46" font-family="Times New Roman,serif" font-size="14.00">12</text>
</g>
<!-- 12&#45;&gt;107 -->
<g id="edge22" class="edge">
<title>12&#45;&gt;107</title>
<path fill="none" stroke="black" d="M439.16,-443.71C430.93,-434.62 420,-422.56 410.27,-411.82"/>
<polygon fill="black" stroke="black" points="413.13,-409.76 403.82,-404.7 407.94,-414.46 413.13,-409.76"/>
</g>
<!-- 115 -->
<g id="node39" class="node">
<title>115</title>
<polygon fill="white" stroke="black" points="537.12,-403.26 500.88,-403.26 500.88,-367.01 537.12,-367.01 537.12,-403.26"/>
<text text-anchor="middle" x="519" y="-379.71" font-family="Times New Roman,serif" font-size="14.00">115</text>
</g>
<!-- 12&#45;&gt;115 -->
<g id="edge45" class="edge">
<title>12&#45;&gt;115</title>
<path fill="none" stroke="black" d="M464.92,-444.05C473.38,-434.99 484.7,-422.87 494.8,-412.05"/>
<polygon fill="black" stroke="black" points="497.26,-414.55 501.52,-404.85 492.14,-409.77 497.26,-414.55"/>
</g>
<!-- 108 -->
<g id="node23" class="node">
<title>108</title>
<polygon fill="white" stroke="black" points="514.12,-111.5 477.88,-111.5 477.88,-75.25 514.12,-75.25 514.12,-111.5"/>
<text text-anchor="middle" x="496" y="-87.95" font-family="Times New Roman,serif" font-size="14.00">108</text>
</g>
<!-- 24 -->
<g id="node26" class="node">
<title>24</title>
<ellipse fill="white" stroke="black" cx="496" cy="-19.63" rx="27" ry="18"/>
<text text-anchor="middle" x="496" y="-14.2" font-family="Times New Roman,serif" font-size="14.00">24</text>
</g>
<!-- 108&#45;&gt;24 -->
<g id="edge26" class="edge">
<title>108&#45;&gt;24</title>
<path fill="none" stroke="black" d="M496,-75.01C496,-67.31 496,-58.05 496,-49.36"/>
<polygon fill="black" stroke="black" points="499.5,-49.6 496,-39.6 492.5,-49.6 499.5,-49.6"/>
</g>
<!-- 19 -->
<g id="node24" class="node">
<title>19</title>
<ellipse fill="white" stroke="black" cx="460" cy="-165.5" rx="27" ry="18"/>
<text text-anchor="middle" x="460" y="-160.08" font-family="Times New Roman,serif" font-size="14.00">19</text>
</g>
<!-- 19&#45;&gt;108 -->
<g id="edge24" class="edge">
<title>19&#45;&gt;108</title>
<path fill="none" stroke="black" d="M468.35,-148.24C472.41,-140.33 477.4,-130.61 482.02,-121.61"/>
<polygon fill="black" stroke="black" points="485.05,-123.37 486.5,-112.88 478.82,-120.18 485.05,-123.37"/>
</g>
<!-- 19&#45;&gt;109 -->
<g id="edge28" class="edge">
<title>19&#45;&gt;109</title>
<path fill="none" stroke="black" d="M442.88,-151.31C429.84,-141.26 411.61,-127.21 396.52,-115.59"/>
<polygon fill="black" stroke="black" points="398.86,-112.97 388.8,-109.64 394.59,-118.52 398.86,-112.97"/>
</g>
<!-- 14 -->
<g id="node25" class="node">
<title>14</title>
<ellipse fill="white" stroke="black" cx="532" cy="-165.5" rx="27" ry="18"/>
<text text-anchor="middle" x="532" y="-160.08" font-family="Times New Roman,serif" font-size="14.00">14</text>
</g>
<!-- 14&#45;&gt;108 -->
<g id="edge25" class="edge">
<title>14&#45;&gt;108</title>
<path fill="none" stroke="black" d="M523.65,-148.24C519.59,-140.33 514.6,-130.61 509.98,-121.61"/>
<polygon fill="black" stroke="black" points="513.18,-120.18 505.5,-112.88 506.95,-123.37 513.18,-120.18"/>
</g>
<!-- 109&#45;&gt;13 -->
<g id="edge29" class="edge">
<title>109&#45;&gt;13</title>
<path fill="none" stroke="black" d="M362.46,-75.01C359.55,-67.25 356.03,-57.91 352.74,-49.17"/>
<polygon fill="black" stroke="black" points="356.09,-48.13 349.29,-40 349.54,-50.59 356.09,-48.13"/>
</g>
<!-- 110&#45;&gt;9 -->
<g id="edge32" class="edge">
<title>110&#45;&gt;9</title>
<path fill="none" stroke="black" d="M369.85,-219.3C365.61,-211.25 360.47,-201.51 355.77,-192.6"/>
<polygon fill="black" stroke="black" points="359,-191.23 351.24,-184.02 352.81,-194.49 359,-191.23"/>
</g>
<!-- 15 -->
<g id="node29" class="node">
<title>15</title>
<ellipse fill="white" stroke="black" cx="451" cy="-311.38" rx="27" ry="18"/>
<text text-anchor="middle" x="451" y="-305.96" font-family="Times New Roman,serif" font-size="14.00">15</text>
</g>
<!-- 15&#45;&gt;110 -->
<g id="edge31" class="edge">
<title>15&#45;&gt;110</title>
<path fill="none" stroke="black" d="M436.43,-295.86C427.26,-286.72 415.18,-274.68 404.46,-264"/>
<polygon fill="black" stroke="black" points="407.23,-261.82 397.67,-257.24 402.29,-266.78 407.23,-261.82"/>
</g>
<!-- 111 -->
<g id="node30" class="node">
<title>111</title>
<polygon fill="white" stroke="black" points="478.12,-255.75 441.88,-255.75 441.88,-219.5 478.12,-219.5 478.12,-255.75"/>
<text text-anchor="middle" x="460" y="-232.2" font-family="Times New Roman,serif" font-size="14.00">111</text>
</g>
<!-- 15&#45;&gt;111 -->
<g id="edge33" class="edge">
<title>15&#45;&gt;111</title>
<path fill="none" stroke="black" d="M453.18,-293.01C454.14,-285.31 455.31,-276.05 456.4,-267.37"/>
<polygon fill="black" stroke="black" points="459.85,-267.95 457.62,-257.59 452.9,-267.08 459.85,-267.95"/>
</g>
<!-- 111&#45;&gt;19 -->
<g id="edge35" class="edge">
<title>111&#45;&gt;19</title>
<path fill="none" stroke="black" d="M460,-219.3C460,-211.99 460,-203.3 460,-195.09"/>
<polygon fill="black" stroke="black" points="463.5,-195.15 460,-185.15 456.5,-195.15 463.5,-195.15"/>
</g>
<!-- 17 -->
<g id="node31" class="node">
<title>17</title>
<ellipse fill="white" stroke="black" cx="523" cy="-311.38" rx="27" ry="18"/>
<text text-anchor="middle" x="523" y="-305.96" font-family="Times New Roman,serif" font-size="14.00">17</text>
</g>
<!-- 17&#45;&gt;111 -->
<g id="edge34" class="edge">
<title>17&#45;&gt;111</title>
<path fill="none" stroke="black" d="M509.95,-295.51C502.06,-286.54 491.8,-274.84 482.63,-264.4"/>
<polygon fill="black" stroke="black" points="485.48,-262.35 476.25,-257.14 480.22,-266.97 485.48,-262.35"/>
</g>
<!-- 114 -->
<g id="node37" class="node">
<title>114</title>
<polygon fill="white" stroke="black" points="541.12,-255.75 504.88,-255.75 504.88,-219.5 541.12,-219.5 541.12,-255.75"/>
<text text-anchor="middle" x="523" y="-232.2" font-family="Times New Roman,serif" font-size="14.00">114</text>
</g>
<!-- 17&#45;&gt;114 -->
<g id="edge42" class="edge">
<title>17&#45;&gt;114</title>
<path fill="none" stroke="black" d="M523,-293.01C523,-285.31 523,-276.05 523,-267.37"/>
<polygon fill="black" stroke="black" points="526.5,-267.6 523,-257.6 519.5,-267.6 526.5,-267.6"/>
</g>
<!-- 112&#45;&gt;15 -->
<g id="edge38" class="edge">
<title>112&#45;&gt;15</title>
<path fill="none" stroke="black" d="M451,-366.76C451,-359.07 451,-349.8 451,-341.12"/>
<polygon fill="black" stroke="black" points="454.5,-341.35 451,-331.35 447.5,-341.35 454.5,-341.35"/>
</g>
<!-- 18 -->
<g id="node33" class="node">
<title>18</title>
<ellipse fill="white" stroke="black" cx="517" cy="-458.89" rx="27" ry="18"/>
<text text-anchor="middle" x="517" y="-453.46" font-family="Times New Roman,serif" font-size="14.00">18</text>
</g>
<!-- 18&#45;&gt;112 -->
<g id="edge37" class="edge">
<title>18&#45;&gt;112</title>
<path fill="none" stroke="black" d="M503.32,-443.02C495.07,-434.04 484.31,-422.35 474.7,-411.9"/>
<polygon fill="black" stroke="black" points="477.35,-409.61 468.01,-404.62 472.2,-414.35 477.35,-409.61"/>
</g>
<!-- 18&#45;&gt;115 -->
<g id="edge46" class="edge">
<title>18&#45;&gt;115</title>
<path fill="none" stroke="black" d="M517.48,-440.52C517.7,-432.82 517.96,-423.55 518.2,-414.87"/>
<polygon fill="black" stroke="black" points="521.69,-415.2 518.47,-405.1 514.69,-415 521.69,-415.2"/>
</g>
<!-- 113 -->
<g id="node34" class="node">
<title>113</title>
<polygon fill="white" stroke="black" points="405.12,-550.76 368.88,-550.76 368.88,-514.51 405.12,-514.51 405.12,-550.76"/>
<text text-anchor="middle" x="387" y="-527.21" font-family="Times New Roman,serif" font-size="14.00">113</text>
</g>
<!-- 113&#45;&gt;11 -->
<g id="edge41" class="edge">
<title>113&#45;&gt;11</title>
<path fill="none" stroke="black" d="M387,-514.27C387,-506.57 387,-497.31 387,-488.62"/>
<polygon fill="black" stroke="black" points="390.5,-488.86 387,-478.86 383.5,-488.86 390.5,-488.86"/>
</g>
<!-- 20 -->
<g id="node35" class="node">
<title>20</title>
<ellipse fill="lightgreen" stroke="black" cx="359" cy="-606.39" rx="19.63" ry="19.63"/>
<text text-anchor="middle" x="359" y="-600.97" font-family="Times New Roman,serif" font-size="14.00">20</text>
</g>
<!-- 20&#45;&gt;113 -->
<g id="edge39" class="edge">
<title>20&#45;&gt;113</title>
<path fill="none" stroke="black" d="M365.92,-587.65C368.97,-579.83 372.63,-570.45 376.04,-561.72"/>
<polygon fill="black" stroke="black" points="379.23,-563.17 379.61,-552.58 372.71,-560.62 379.23,-563.17"/>
</g>
<!-- 21 -->
<g id="node36" class="node">
<title>21</title>
<ellipse fill="lightgreen" stroke="black" cx="416" cy="-606.39" rx="19.63" ry="19.63"/>
<text text-anchor="middle" x="416" y="-600.97" font-family="Times New Roman,serif" font-size="14.00">21</text>
</g>
<!-- 21&#45;&gt;113 -->
<g id="edge40" class="edge">
<title>21&#45;&gt;113</title>
<path fill="none" stroke="black" d="M408.83,-587.65C405.67,-579.83 401.88,-570.45 398.35,-561.72"/>
<polygon fill="black" stroke="black" points="401.65,-560.53 394.65,-552.57 395.16,-563.16 401.65,-560.53"/>
</g>
<!-- 114&#45;&gt;19 -->
<g id="edge44" class="edge">
<title>114&#45;&gt;19</title>
<path fill="none" stroke="black" d="M507.43,-219.3C499.39,-210.35 489.48,-199.32 480.8,-189.66"/>
<polygon fill="black" stroke="black" points="483.56,-187.49 474.28,-182.39 478.36,-192.17 483.56,-187.49"/>
</g>
<!-- 22 -->
<g id="node38" class="node">
<title>22</title>
<ellipse fill="white" stroke="black" cx="589" cy="-458.89" rx="27" ry="18"/>
<text text-anchor="middle" x="589" y="-453.46" font-family="Times New Roman,serif" font-size="14.00">22</text>
</g>
<!-- 22&#45;&gt;114 -->
<g id="edge43" class="edge">
<title>22&#45;&gt;114</title>
<path fill="none" stroke="black" d="M588.24,-440.73C586.36,-409.86 580.02,-343.32 559,-291.75 555.29,-282.66 549.87,-273.53 544.35,-265.47"/>
<polygon fill="black" stroke="black" points="547.26,-263.52 538.57,-257.46 541.59,-267.62 547.26,-263.52"/>
</g>
<!-- 22&#45;&gt;115 -->
<g id="edge47" class="edge">
<title>22&#45;&gt;115</title>
<path fill="none" stroke="black" d="M574.83,-443.37C566.01,-434.32 554.4,-422.42 544.06,-411.82"/>
<polygon fill="black" stroke="black" points="546.66,-409.47 537.17,-404.76 541.65,-414.36 546.66,-409.47"/>
</g>
<!-- 115&#45;&gt;17 -->
<g id="edge48" class="edge">
<title>115&#45;&gt;17</title>
<path fill="none" stroke="black" d="M519.97,-366.76C520.4,-359.07 520.91,-349.8 521.4,-341.12"/>
<polygon fill="black" stroke="black" points="524.88,-341.53 521.94,-331.35 517.89,-341.14 524.88,-341.53"/>
</g>
</g>
</svg>
