<?xml version="1.0" encoding="UTF-8" standalone="no"?>
<!DOCTYPE svg PUBLIC "-//W3C//DTD SVG 1.1//EN"
 "http://www.w3.org/Graphics/SVG/1.1/DTD/svg11.dtd">
<!-- Generated by graphviz version 10.0.1 (20240210.2158)
 -->
<!-- Title: G Pages: 1 -->
<svg width="609pt" height="634pt"
 viewBox="0.00 0.00 609.00 634.02" xmlns="http://www.w3.org/2000/svg" xmlns:xlink="http://www.w3.org/1999/xlink">
<g id="graph0" class="graph" transform="scale(1 1) rotate(0) translate(4 630.02)">
<title>G</title>
<polygon fill="white" stroke="none" points="-4,4 -4,-630.02 605,-630.02 605,4 -4,4"/>
<!-- 101 -->
<g id="node1" class="node">
<title>101</title>
<polygon fill="darkgreen" stroke="black" points="90.12,-403.26 53.88,-403.26 53.88,-367.01 90.12,-367.01 90.12,-403.26"/>
<text text-anchor="middle" x="72" y="-379.71" font-family="Times New Roman,serif" font-size="14.00">101</text>
</g>
<!-- 3 -->
<g id="node4" class="node">
<title>3</title>
<ellipse fill="lightgreen" stroke="black" cx="167" cy="-311.38" rx="18" ry="18"/>
<text text-anchor="middle" x="167" y="-305.96" font-family="Times New Roman,serif" font-size="14.00">3</text>
</g>
<!-- 101&#45;&gt;3 -->
<g id="edge3" class="edge">
<title>101&#45;&gt;3</title>
<path fill="none" stroke="lightcoral" d="M90.32,-370.3C105.55,-358.79 127.32,-342.35 143.78,-329.92"/>
<polygon fill="lightcoral" stroke="lightcoral" points="145.69,-332.87 151.56,-324.05 141.47,-327.28 145.69,-332.87"/>
</g>
<!-- 1 -->
<g id="node2" class="node">
<title>1</title>
<ellipse fill="lightgreen" stroke="black" cx="72" cy="-458.89" rx="18" ry="18"/>
<text text-anchor="middle" x="72" y="-453.46" font-family="Times New Roman,serif" font-size="14.00">1</text>
</g>
<!-- 1&#45;&gt;101 -->
<g id="edge1" class="edge">
<title>1&#45;&gt;101</title>
<path fill="none" stroke="lightcoral" d="M72,-440.52C72,-432.82 72,-423.55 72,-414.87"/>
<polygon fill="lightcoral" stroke="lightcoral" points="75.5,-415.11 72,-405.11 68.5,-415.11 75.5,-415.11"/>
</g>
<!-- 2 -->
<g id="node3" class="node">
<title>2</title>
<ellipse fill="lightgreen" stroke="black" cx="18" cy="-458.89" rx="18" ry="18"/>
<text text-anchor="middle" x="18" y="-453.46" font-family="Times New Roman,serif" font-size="14.00">2</text>
</g>
<!-- 2&#45;&gt;101 -->
<g id="edge2" class="edge">
<title>2&#45;&gt;101</title>
<path fill="none" stroke="lightcoral" d="M28.41,-444.05C35.1,-435.17 44,-423.34 52.01,-412.7"/>
<polygon fill="lightcoral" stroke="lightcoral" points="54.62,-415.05 57.84,-404.95 49.03,-410.84 54.62,-415.05"/>
</g>
<!-- 102 -->
<g id="node5" class="node">
<title>102</title>
<polygon fill="darkgreen" stroke="black" points="217.12,-255.75 180.88,-255.75 180.88,-219.5 217.12,-219.5 217.12,-255.75"/>
<text text-anchor="middle" x="199" y="-232.2" font-family="Times New Roman,serif" font-size="14.00">102</text>
</g>
<!-- 2&#45;&gt;102 -->
<g id="edge5" class="edge">
<title>2&#45;&gt;102</title>
<path fill="none" stroke="lightcoral" d="M20.09,-440.55C23.08,-421.26 29.97,-389.83 45,-367.01 78.02,-316.87 136.45,-276.02 171.06,-254.7"/>
<polygon fill="lightcoral" stroke="lightcoral" points="172.52,-257.91 179.27,-249.75 168.9,-251.91 172.52,-257.91"/>
</g>
<!-- 3&#45;&gt;102 -->
<g id="edge4" class="edge">
<title>3&#45;&gt;102</title>
<path fill="none" stroke="lightcoral" d="M174.1,-294.46C177.79,-286.18 182.41,-275.82 186.67,-266.28"/>
<polygon fill="lightcoral" stroke="lightcoral" points="189.75,-267.96 190.63,-257.4 183.36,-265.11 189.75,-267.96"/>
</g>
<!-- 7 -->
<g id="node7" class="node">
<title>7</title>
<ellipse fill="lightgreen" stroke="black" cx="243" cy="-165.5" rx="18" ry="18"/>
<text text-anchor="middle" x="243" y="-160.08" font-family="Times New Roman,serif" font-size="14.00">7</text>
</g>
<!-- 102&#45;&gt;7 -->
<g id="edge7" class="edge">
<title>102&#45;&gt;7</title>
<path fill="none" stroke="lightcoral" d="M209.88,-219.3C215.26,-210.72 221.85,-200.22 227.73,-190.85"/>
<polygon fill="lightcoral" stroke="lightcoral" points="230.58,-192.88 232.93,-182.55 224.65,-189.16 230.58,-192.88"/>
</g>
<!-- 4 -->
<g id="node6" class="node">
<title>4</title>
<ellipse fill="lightgreen" stroke="black" cx="259" cy="-311.38" rx="18" ry="18"/>
<text text-anchor="middle" x="259" y="-305.96" font-family="Times New Roman,serif" font-size="14.00">4</text>
</g>
<!-- 4&#45;&gt;102 -->
<g id="edge6" class="edge">
<title>4&#45;&gt;102</title>
<path fill="none" stroke="lightcoral" d="M247.71,-296.89C240.18,-287.88 230.03,-275.74 220.94,-264.87"/>
<polygon fill="lightcoral" stroke="lightcoral" points="223.71,-262.73 214.61,-257.3 218.34,-267.22 223.71,-262.73"/>
</g>
<!-- 106 -->
<g id="node17" class="node">
<title>106</title>
<polygon fill="darkgreen" stroke="black" points="335.12,-255.75 298.88,-255.75 298.88,-219.5 335.12,-219.5 335.12,-255.75"/>
<text text-anchor="middle" x="317" y="-232.2" font-family="Times New Roman,serif" font-size="14.00">106</text>
</g>
<!-- 4&#45;&gt;106 -->
<g id="edge17" class="edge">
<title>4&#45;&gt;106</title>
<path fill="none" stroke="lightcoral" d="M269.91,-296.89C277.19,-287.88 287,-275.74 295.79,-264.87"/>
<polygon fill="lightcoral" stroke="lightcoral" points="298.33,-267.29 301.89,-257.32 292.89,-262.89 298.33,-267.29"/>
</g>
<!-- 105 -->
<g id="node14" class="node">
<title>105</title>
<polygon fill="darkgreen" stroke="black" points="334.12,-111.5 297.88,-111.5 297.88,-75.25 334.12,-75.25 334.12,-111.5"/>
<text text-anchor="middle" x="316" y="-87.95" font-family="Times New Roman,serif" font-size="14.00">105</text>
</g>
<!-- 7&#45;&gt;105 -->
<g id="edge14" class="edge">
<title>7&#45;&gt;105</title>
<path fill="none" stroke="lightcoral" d="M255.72,-152.29C265.05,-143.32 278.06,-130.82 289.61,-119.73"/>
<polygon fill="lightcoral" stroke="lightcoral" points="291.81,-122.47 296.59,-113.02 286.96,-117.43 291.81,-122.47"/>
</g>
<!-- 103 -->
<g id="node8" class="node">
<title>103</title>
<polygon fill="darkgreen" stroke="black" points="288.12,-403.26 251.88,-403.26 251.88,-367.01 288.12,-367.01 288.12,-403.26"/>
<text text-anchor="middle" x="270" y="-379.71" font-family="Times New Roman,serif" font-size="14.00">103</text>
</g>
<!-- 103&#45;&gt;4 -->
<g id="edge10" class="edge">
<title>103&#45;&gt;4</title>
<path fill="none" stroke="lightcoral" d="M267.34,-366.76C266.15,-359.01 264.72,-349.66 263.38,-340.93"/>
<polygon fill="lightcoral" stroke="lightcoral" points="266.84,-340.44 261.87,-331.09 259.92,-341.5 266.84,-340.44"/>
</g>
<!-- 5 -->
<g id="node9" class="node">
<title>5</title>
<ellipse fill="lightgreen" stroke="black" cx="270" cy="-458.89" rx="18" ry="18"/>
<text text-anchor="middle" x="270" y="-453.46" font-family="Times New Roman,serif" font-size="14.00">5</text>
</g>
<!-- 5&#45;&gt;103 -->
<g id="edge8" class="edge">
<title>5&#45;&gt;103</title>
<path fill="none" stroke="lightcoral" d="M270,-440.52C270,-432.82 270,-423.55 270,-414.87"/>
<polygon fill="lightcoral" stroke="lightcoral" points="273.5,-415.11 270,-405.11 266.5,-415.11 273.5,-415.11"/>
</g>
<!-- 6 -->
<g id="node10" class="node">
<title>6</title>
<ellipse fill="lightgreen" stroke="black" cx="324" cy="-458.89" rx="18" ry="18"/>
<text text-anchor="middle" x="324" y="-453.46" font-family="Times New Roman,serif" font-size="14.00">6</text>
</g>
<!-- 6&#45;&gt;103 -->
<g id="edge9" class="edge">
<title>6&#45;&gt;103</title>
<path fill="none" stroke="lightcoral" d="M313.59,-444.05C306.9,-435.17 298,-423.34 289.99,-412.7"/>
<polygon fill="lightcoral" stroke="lightcoral" points="292.97,-410.84 284.16,-404.95 287.38,-415.05 292.97,-410.84"/>
</g>
<!-- 104 -->
<g id="node11" class="node">
<title>104</title>
<polygon fill="white" stroke="black" points="185.12,-403.26 148.88,-403.26 148.88,-367.01 185.12,-367.01 185.12,-403.26"/>
<text text-anchor="middle" x="167" y="-379.71" font-family="Times New Roman,serif" font-size="14.00">104</text>
</g>
<!-- 104&#45;&gt;3 -->
<g id="edge13" class="edge">
<title>104&#45;&gt;3</title>
<path fill="none" stroke="black" d="M167,-366.76C167,-359.07 167,-349.8 167,-341.12"/>
<polygon fill="black" stroke="black" points="170.5,-341.35 167,-331.35 163.5,-341.35 170.5,-341.35"/>
</g>
<!-- 8 -->
<g id="node12" class="node">
<title>8</title>
<ellipse fill="white" stroke="black" cx="135" cy="-458.89" rx="27" ry="18"/>
<text text-anchor="middle" x="135" y="-453.46" font-family="Times New Roman,serif" font-size="14.00">8</text>
</g>
<!-- 8&#45;&gt;104 -->
<g id="edge11" class="edge">
<title>8&#45;&gt;104</title>
<path fill="none" stroke="black" d="M142.42,-441.24C146.03,-433.15 150.47,-423.2 154.57,-414"/>
<polygon fill="black" stroke="black" points="157.68,-415.63 158.56,-405.07 151.29,-412.78 157.68,-415.63"/>
</g>
<!-- 23 -->
<g id="node13" class="node">
<title>23</title>
<ellipse fill="white" stroke="black" cx="207" cy="-458.89" rx="27" ry="18"/>
<text text-anchor="middle" x="207" y="-453.46" font-family="Times New Roman,serif" font-size="14.00">23</text>
</g>
<!-- 23&#45;&gt;104 -->
<g id="edge12" class="edge">
<title>23&#45;&gt;104</title>
<path fill="none" stroke="black" d="M197.92,-441.6C193.29,-433.28 187.52,-422.94 182.22,-413.44"/>
<polygon fill="black" stroke="black" points="185.4,-411.96 177.48,-404.93 179.29,-415.37 185.4,-411.96"/>
</g>
<!-- 13 -->
<g id="node16" class="node">
<title>13</title>
<ellipse fill="lightcoral" stroke="black" cx="362" cy="-19.63" rx="19.63" ry="19.63"/>
<text text-anchor="middle" x="362" y="-14.2" font-family="Times New Roman,serif" font-size="14.00">13</text>
</g>
<!-- 105&#45;&gt;13 -->
<g id="edge16" class="edge">
<title>105&#45;&gt;13</title>
<path fill="none" stroke="lightcoral" d="M327.14,-75.01C332.66,-66.39 339.44,-55.81 345.56,-46.28"/>
<polygon fill="lightcoral" stroke="lightcoral" points="348.33,-48.43 350.78,-38.13 342.44,-44.66 348.33,-48.43"/>
</g>
<!-- 9 -->
<g id="node15" class="node">
<title>9</title>
<ellipse fill="lightgreen" stroke="black" cx="329" cy="-165.5" rx="18" ry="18"/>
<text text-anchor="middle" x="329" y="-160.08" font-family="Times New Roman,serif" font-size="14.00">9</text>
</g>
<!-- 9&#45;&gt;105 -->
<g id="edge15" class="edge">
<title>9&#45;&gt;105</title>
<path fill="none" stroke="lightcoral" d="M325.85,-147.53C324.48,-140.15 322.84,-131.29 321.29,-122.94"/>
<polygon fill="lightcoral" stroke="lightcoral" points="324.75,-122.37 319.48,-113.17 317.87,-123.64 324.75,-122.37"/>
</g>
<!-- 109 -->
<g id="node27" class="node">
<title>109</title>
<polygon fill="white" stroke="black" points="388.12,-111.5 351.88,-111.5 351.88,-75.25 388.12,-75.25 388.12,-111.5"/>
<text text-anchor="middle" x="370" y="-87.95" font-family="Times New Roman,serif" font-size="14.00">109</text>
</g>
<!-- 9&#45;&gt;109 -->
<g id="edge27" class="edge">
<title>9&#45;&gt;109</title>
<path fill="none" stroke="black" d="M337.9,-149.29C342.67,-141.12 348.7,-130.82 354.23,-121.35"/>
<polygon fill="black" stroke="black" points="357.18,-123.24 359.2,-112.84 351.14,-119.71 357.18,-123.24"/>
</g>
<!-- 106&#45;&gt;9 -->
<g id="edge20" class="edge">
<title>106&#45;&gt;9</title>
<path fill="none" stroke="lightcoral" d="M319.97,-219.3C321.23,-211.91 322.74,-203.09 324.16,-194.8"/>
<polygon fill="lightcoral" stroke="lightcoral" points="327.58,-195.58 325.81,-185.13 320.68,-194.4 327.58,-195.58"/>
</g>
<!-- 16 -->
<g id="node18" class="node">
<title>16</title>
<ellipse fill="lightgreen" stroke="black" cx="315" cy="-311.38" rx="19.63" ry="19.63"/>
<text text-anchor="middle" x="315" y="-305.96" font-family="Times New Roman,serif" font-size="14.00">16</text>
</g>
<!-- 16&#45;&gt;106 -->
<g id="edge18" class="edge">
<title>16&#45;&gt;106</title>
<path fill="none" stroke="lightcoral" d="M315.53,-291.53C315.73,-284.16 315.97,-275.55 316.2,-267.44"/>
<polygon fill="lightcoral" stroke="lightcoral" points="319.69,-267.73 316.47,-257.64 312.69,-267.54 319.69,-267.73"/>
</g>
<!-- 10 -->
<g id="node19" class="node">
<title>10</title>
<ellipse fill="lightgreen" stroke="black" cx="372" cy="-311.38" rx="19.63" ry="19.63"/>
<text text-anchor="middle" x="372" y="-305.96" font-family="Times New Roman,serif" font-size="14.00">10</text>
</g>
<!-- 10&#45;&gt;106 -->
<g id="edge19" class="edge">
<title>10&#45;&gt;106</title>
<path fill="none" stroke="lightcoral" d="M360.34,-295.16C353.62,-286.41 345,-275.16 337.22,-265.01"/>
<polygon fill="lightcoral" stroke="lightcoral" points="340.17,-263.1 331.31,-257.3 334.62,-267.36 340.17,-263.1"/>
</g>
<!-- 110 -->
<g id="node28" class="node">
<title>110</title>
<polygon fill="white" stroke="black" points="390.12,-255.75 353.88,-255.75 353.88,-219.5 390.12,-219.5 390.12,-255.75"/>
<text text-anchor="middle" x="372" y="-232.2" font-family="Times New Roman,serif" font-size="14.00">110</text>
</g>
<!-- 10&#45;&gt;110 -->
<g id="edge30" class="edge">
<title>10&#45;&gt;110</title>
<path fill="none" stroke="black" d="M372,-291.53C372,-284.16 372,-275.55 372,-267.44"/>
<polygon fill="black" stroke="black" points="375.5,-267.64 372,-257.64 368.5,-267.64 375.5,-267.64"/>
</g>
<!-- 107 -->
<g id="node20" class="node">
<title>107</title>
<polygon fill="darkgreen" stroke="black" points="398.12,-403.26 361.88,-403.26 361.88,-367.01 398.12,-367.01 398.12,-403.26"/>
<text text-anchor="middle" x="380" y="-379.71" font-family="Times New Roman,serif" font-size="14.00">107</text>
</g>
<!-- 107&#45;&gt;10 -->
<g id="edge23" class="edge">
<title>107&#45;&gt;10</title>
<path fill="none" stroke="lightcoral" d="M378.06,-366.76C377.25,-359.49 376.29,-350.82 375.37,-342.56"/>
<polygon fill="lightcoral" stroke="lightcoral" points="378.87,-342.41 374.28,-332.86 371.91,-343.18 378.87,-342.41"/>
</g>
<!-- 11 -->
<g id="node21" class="node">
<title>11</title>
<ellipse fill="lightgreen" stroke="black" cx="380" cy="-458.89" rx="19.63" ry="19.63"/>
<text text-anchor="middle" x="380" y="-453.46" font-family="Times New Roman,serif" font-size="14.00">11</text>
</g>
<!-- 11&#45;&gt;107 -->
<g id="edge21" class="edge">
<title>11&#45;&gt;107</title>
<path fill="none" stroke="lightcoral" d="M380,-439.03C380,-431.67 380,-423.06 380,-414.95"/>
<polygon fill="lightcoral" stroke="lightcoral" points="383.5,-415.14 380,-405.14 376.5,-415.14 383.5,-415.14"/>
</g>
<!-- 112 -->
<g id="node32" class="node">
<title>112</title>
<polygon fill="white" stroke="black" points="455.12,-403.26 418.88,-403.26 418.88,-367.01 455.12,-367.01 455.12,-403.26"/>
<text text-anchor="middle" x="437" y="-379.71" font-family="Times New Roman,serif" font-size="14.00">112</text>
</g>
<!-- 11&#45;&gt;112 -->
<g id="edge36" class="edge">
<title>11&#45;&gt;112</title>
<path fill="none" stroke="black" d="M391.81,-443.02C398.87,-434.13 408.04,-422.58 416.28,-412.22"/>
<polygon fill="black" stroke="black" points="418.78,-414.7 422.26,-404.69 413.3,-410.35 418.78,-414.7"/>
</g>
<!-- 12 -->
<g id="node22" class="node">
<title>12</title>
<ellipse fill="lightgreen" stroke="black" cx="437" cy="-458.89" rx="19.63" ry="19.63"/>
<text text-anchor="middle" x="437" y="-453.46" font-family="Times New Roman,serif" font-size="14.00">12</text>
</g>
<!-- 12&#45;&gt;107 -->
<g id="edge22" class="edge">
<title>12&#45;&gt;107</title>
<path fill="none" stroke="lightcoral" d="M425.19,-443.02C418.13,-434.13 408.96,-422.58 400.72,-412.22"/>
<polygon fill="lightcoral" stroke="lightcoral" points="403.7,-410.35 394.74,-404.69 398.22,-414.7 403.7,-410.35"/>
</g>
<!-- 115 -->
<g id="node39" class="node">
<title>115</title>
<polygon fill="white" stroke="black" points="523.12,-403.26 486.88,-403.26 486.88,-367.01 523.12,-367.01 523.12,-403.26"/>
<text text-anchor="middle" x="505" y="-379.71" font-family="Times New Roman,serif" font-size="14.00">115</text>
</g>
<!-- 12&#45;&gt;115 -->
<g id="edge45" class="edge">
<title>12&#45;&gt;115</title>
<path fill="none" stroke="black" d="M450.11,-444.05C458.7,-434.99 470.19,-422.87 480.44,-412.05"/>
<polygon fill="black" stroke="black" points="482.93,-414.51 487.27,-404.84 477.85,-409.69 482.93,-414.51"/>
</g>
<!-- 108 -->
<g id="node23" class="node">
<title>108</title>
<polygon fill="white" stroke="black" points="472.12,-111.5 435.88,-111.5 435.88,-75.25 472.12,-75.25 472.12,-111.5"/>
<text text-anchor="middle" x="454" y="-87.95" font-family="Times New Roman,serif" font-size="14.00">108</text>
</g>
<!-- 24 -->
<g id="node26" class="node">
<title>24</title>
<ellipse fill="white" stroke="black" cx="454" cy="-19.63" rx="27" ry="18"/>
<text text-anchor="middle" x="454" y="-14.2" font-family="Times New Roman,serif" font-size="14.00">24</text>
</g>
<!-- 108&#45;&gt;24 -->
<g id="edge26" class="edge">
<title>108&#45;&gt;24</title>
<path fill="none" stroke="black" d="M454,-75.01C454,-67.31 454,-58.05 454,-49.36"/>
<polygon fill="black" stroke="black" points="457.5,-49.6 454,-39.6 450.5,-49.6 457.5,-49.6"/>
</g>
<!-- 19 -->
<g id="node24" class="node">
<title>19</title>
<ellipse fill="white" stroke="black" cx="446" cy="-165.5" rx="27" ry="18"/>
<text text-anchor="middle" x="446" y="-160.08" font-family="Times New Roman,serif" font-size="14.00">19</text>
</g>
<!-- 19&#45;&gt;108 -->
<g id="edge24" class="edge">
<title>19&#45;&gt;108</title>
<path fill="none" stroke="black" d="M447.98,-147.17C448.8,-139.98 449.77,-131.43 450.7,-123.33"/>
<polygon fill="black" stroke="black" points="454.16,-123.84 451.82,-113.51 447.21,-123.04 454.16,-123.84"/>
</g>
<!-- 19&#45;&gt;109 -->
<g id="edge28" class="edge">
<title>19&#45;&gt;109</title>
<path fill="none" stroke="black" d="M430.62,-150.31C420.94,-141.38 408.19,-129.61 396.87,-119.18"/>
<polygon fill="black" stroke="black" points="399.41,-116.76 389.69,-112.55 394.67,-121.9 399.41,-116.76"/>
</g>
<!-- 14 -->
<g id="node25" class="node">
<title>14</title>
<ellipse fill="white" stroke="black" cx="518" cy="-165.5" rx="27" ry="18"/>
<text text-anchor="middle" x="518" y="-160.08" font-family="Times New Roman,serif" font-size="14.00">14</text>
</g>
<!-- 14&#45;&gt;108 -->
<g id="edge25" class="edge">
<title>14&#45;&gt;108</title>
<path fill="none" stroke="black" d="M504.43,-149.63C496.65,-141.11 486.67,-130.18 477.65,-120.29"/>
<polygon fill="black" stroke="black" points="480.39,-118.1 471.06,-113.07 475.22,-122.82 480.39,-118.1"/>
</g>
<!-- 109&#45;&gt;13 -->
<g id="edge29" class="edge">
<title>109&#45;&gt;13</title>
<path fill="none" stroke="black" d="M368.06,-75.01C367.25,-67.74 366.29,-59.07 365.37,-50.81"/>
<polygon fill="black" stroke="black" points="368.87,-50.65 364.28,-41.1 361.91,-51.43 368.87,-50.65"/>
</g>
<!-- 110&#45;&gt;9 -->
<g id="edge32" class="edge">
<title>110&#45;&gt;9</title>
<path fill="none" stroke="black" d="M361.37,-219.3C356.11,-210.72 349.67,-200.22 343.93,-190.85"/>
<polygon fill="black" stroke="black" points="347.06,-189.25 338.84,-182.56 341.09,-192.91 347.06,-189.25"/>
</g>
<!-- 15 -->
<g id="node29" class="node">
<title>15</title>
<ellipse fill="white" stroke="black" cx="437" cy="-311.38" rx="27" ry="18"/>
<text text-anchor="middle" x="437" y="-305.96" font-family="Times New Roman,serif" font-size="14.00">15</text>
</g>
<!-- 15&#45;&gt;110 -->
<g id="edge31" class="edge">
<title>15&#45;&gt;110</title>
<path fill="none" stroke="black" d="M423.53,-295.51C415.4,-286.54 404.81,-274.84 395.34,-264.4"/>
<polygon fill="black" stroke="black" points="398.06,-262.19 388.76,-257.13 392.88,-266.89 398.06,-262.19"/>
</g>
<!-- 111 -->
<g id="node30" class="node">
<title>111</title>
<polygon fill="white" stroke="black" points="464.12,-255.75 427.88,-255.75 427.88,-219.5 464.12,-219.5 464.12,-255.75"/>
<text text-anchor="middle" x="446" y="-232.2" font-family="Times New Roman,serif" font-size="14.00">111</text>
</g>
<!-- 15&#45;&gt;111 -->
<g id="edge33" class="edge">
<title>15&#45;&gt;111</title>
<path fill="none" stroke="black" d="M439.18,-293.01C440.14,-285.31 441.31,-276.05 442.4,-267.37"/>
<polygon fill="black" stroke="black" points="445.85,-267.95 443.62,-257.59 438.9,-267.08 445.85,-267.95"/>
</g>
<!-- 111&#45;&gt;19 -->
<g id="edge35" class="edge">
<title>111&#45;&gt;19</title>
<path fill="none" stroke="black" d="M446,-219.3C446,-211.99 446,-203.3 446,-195.09"/>
<polygon fill="black" stroke="black" points="449.5,-195.15 446,-185.15 442.5,-195.15 449.5,-195.15"/>
</g>
<!-- 17 -->
<g id="node31" class="node">
<title>17</title>
<ellipse fill="white" stroke="black" cx="509" cy="-311.38" rx="27" ry="18"/>
<text text-anchor="middle" x="509" y="-305.96" font-family="Times New Roman,serif" font-size="14.00">17</text>
</g>
<!-- 17&#45;&gt;111 -->
<g id="edge34" class="edge">
<title>17&#45;&gt;111</title>
<path fill="none" stroke="black" d="M495.95,-295.51C488.06,-286.54 477.8,-274.84 468.63,-264.4"/>
<polygon fill="black" stroke="black" points="471.48,-262.35 462.25,-257.14 466.22,-266.97 471.48,-262.35"/>
</g>
<!-- 114 -->
<g id="node37" class="node">
<title>114</title>
<polygon fill="white" stroke="black" points="527.12,-255.75 490.88,-255.75 490.88,-219.5 527.12,-219.5 527.12,-255.75"/>
<text text-anchor="middle" x="509" y="-232.2" font-family="Times New Roman,serif" font-size="14.00">114</text>
</g>
<!-- 17&#45;&gt;114 -->
<g id="edge42" class="edge">
<title>17&#45;&gt;114</title>
<path fill="none" stroke="black" d="M509,-293.01C509,-285.31 509,-276.05 509,-267.37"/>
<polygon fill="black" stroke="black" points="512.5,-267.6 509,-257.6 505.5,-267.6 512.5,-267.6"/>
</g>
<!-- 112&#45;&gt;15 -->
<g id="edge38" class="edge">
<title>112&#45;&gt;15</title>
<path fill="none" stroke="black" d="M437,-366.76C437,-359.07 437,-349.8 437,-341.12"/>
<polygon fill="black" stroke="black" points="440.5,-341.35 437,-331.35 433.5,-341.35 440.5,-341.35"/>
</g>
<!-- 18 -->
<g id="node33" class="node">
<title>18</title>
<ellipse fill="white" stroke="black" cx="502" cy="-458.89" rx="27" ry="18"/>
<text text-anchor="middle" x="502" y="-453.46" font-family="Times New Roman,serif" font-size="14.00">18</text>
</g>
<!-- 18&#45;&gt;112 -->
<g id="edge37" class="edge">
<title>18&#45;&gt;112</title>
<path fill="none" stroke="black" d="M488.53,-443.02C480.4,-434.04 469.81,-422.35 460.34,-411.9"/>
<polygon fill="black" stroke="black" points="463.06,-409.69 453.76,-404.63 457.88,-414.39 463.06,-409.69"/>
</g>
<!-- 18&#45;&gt;115 -->
<g id="edge46" class="edge">
<title>18&#45;&gt;115</title>
<path fill="none" stroke="black" d="M502.73,-440.52C503.05,-432.82 503.44,-423.55 503.8,-414.87"/>
<polygon fill="black" stroke="black" points="507.29,-415.24 504.21,-405.1 500.29,-414.95 507.29,-415.24"/>
</g>
<!-- 113 -->
<g id="node34" class="node">
<title>113</title>
<polygon fill="darkgreen" stroke="black" points="398.12,-550.76 361.88,-550.76 361.88,-514.51 398.12,-514.51 398.12,-550.76"/>
<text text-anchor="middle" x="380" y="-527.21" font-family="Times New Roman,serif" font-size="14.00">113</text>
</g>
<!-- 113&#45;&gt;11 -->
<g id="edge41" class="edge">
<title>113&#45;&gt;11</title>
<path fill="none" stroke="lightcoral" d="M380,-514.27C380,-507.08 380,-498.52 380,-490.35"/>
<polygon fill="lightcoral" stroke="lightcoral" points="383.5,-490.37 380,-480.37 376.5,-490.37 383.5,-490.37"/>
</g>
<!-- 20 -->
<g id="node35" class="node">
<title>20</title>
<ellipse fill="lightgreen" stroke="black" cx="352" cy="-606.39" rx="19.63" ry="19.63"/>
<text text-anchor="middle" x="352" y="-600.97" font-family="Times New Roman,serif" font-size="14.00">20</text>
</g>
<!-- 20&#45;&gt;113 -->
<g id="edge39" class="edge">
<title>20&#45;&gt;113</title>
<path fill="none" stroke="lightcoral" d="M358.92,-587.65C361.97,-579.83 365.63,-570.45 369.04,-561.72"/>
<polygon fill="lightcoral" stroke="lightcoral" points="372.23,-563.17 372.61,-552.58 365.71,-560.62 372.23,-563.17"/>
</g>
<!-- 21 -->
<g id="node36" class="node">
<title>21</title>
<ellipse fill="lightgreen" stroke="black" cx="409" cy="-606.39" rx="19.63" ry="19.63"/>
<text text-anchor="middle" x="409" y="-600.97" font-family="Times New Roman,serif" font-size="14.00">21</text>
</g>
<!-- 21&#45;&gt;113 -->
<g id="edge40" class="edge">
<title>21&#45;&gt;113</title>
<path fill="none" stroke="lightcoral" d="M401.83,-587.65C398.67,-579.83 394.88,-570.45 391.35,-561.72"/>
<polygon fill="lightcoral" stroke="lightcoral" points="394.65,-560.53 387.65,-552.57 388.16,-563.16 394.65,-560.53"/>
</g>
<!-- 114&#45;&gt;19 -->
<g id="edge44" class="edge">
<title>114&#45;&gt;19</title>
<path fill="none" stroke="black" d="M493.43,-219.3C485.39,-210.35 475.48,-199.32 466.8,-189.66"/>
<polygon fill="black" stroke="black" points="469.56,-187.49 460.28,-182.39 464.36,-192.17 469.56,-187.49"/>
</g>
<!-- 22 -->
<g id="node38" class="node">
<title>22</title>
<ellipse fill="white" stroke="black" cx="574" cy="-458.89" rx="27" ry="18"/>
<text text-anchor="middle" x="574" y="-453.46" font-family="Times New Roman,serif" font-size="14.00">22</text>
</g>
<!-- 22&#45;&gt;114 -->
<g id="edge43" class="edge">
<title>22&#45;&gt;114</title>
<path fill="none" stroke="black" d="M573.37,-440.74C571.73,-409.86 565.85,-343.33 545,-291.75 541.32,-282.65 535.9,-273.51 530.39,-265.45"/>
<polygon fill="black" stroke="black" points="533.29,-263.5 524.6,-257.45 527.62,-267.6 533.29,-263.5"/>
</g>
<!-- 22&#45;&gt;115 -->
<g id="edge47" class="edge">
<title>22&#45;&gt;115</title>
<path fill="none" stroke="black" d="M560.04,-443.37C551.34,-434.32 539.9,-422.42 529.7,-411.82"/>
<polygon fill="black" stroke="black" points="532.37,-409.55 522.92,-404.77 527.33,-414.4 532.37,-409.55"/>
</g>
<!-- 115&#45;&gt;17 -->
<g id="edge48" class="edge">
<title>115&#45;&gt;17</title>
<path fill="none" stroke="black" d="M505.97,-366.76C506.4,-359.07 506.91,-349.8 507.4,-341.12"/>
<polygon fill="black" stroke="black" points="510.88,-341.53 507.94,-331.35 503.89,-341.14 510.88,-341.53"/>
</g>
</g>
</svg>
