<?xml version="1.0" encoding="UTF-8" standalone="no"?>
<!DOCTYPE svg PUBLIC "-//W3C//DTD SVG 1.1//EN"
 "http://www.w3.org/Graphics/SVG/1.1/DTD/svg11.dtd">
<!-- Generated by graphviz version 10.0.1 (20240210.2158)
 -->
<!-- Title: G Pages: 1 -->
<svg width="603pt" height="128pt"
 viewBox="0.00 0.00 603.25 127.75" xmlns="http://www.w3.org/2000/svg" xmlns:xlink="http://www.w3.org/1999/xlink">
<g id="graph0" class="graph" transform="scale(1 1) rotate(0) translate(4 123.75)">
<title>G</title>
<polygon fill="white" stroke="none" points="-4,4 -4,-123.75 599.25,-123.75 599.25,4 -4,4"/>
<!-- 0 -->
<g id="node1" class="node">
<title>0</title>
<ellipse fill="none" stroke="black" cx="27" cy="-38" rx="27" ry="18"/>
<text text-anchor="middle" x="27" y="-32.58" font-family="Times New Roman,serif" font-size="14.00">0</text>
</g>
<!-- 1 -->
<g id="node2" class="node">
<title>1</title>
<ellipse fill="none" stroke="black" cx="137.25" cy="-70" rx="27" ry="18"/>
<text text-anchor="middle" x="137.25" y="-64.58" font-family="Times New Roman,serif" font-size="14.00">1</text>
</g>
<!-- 0&#45;&gt;1 -->
<g id="edge1" class="edge">
<title>0&#45;&gt;1</title>
<path fill="none" stroke="black" d="M52.29,-45.18C66.78,-49.46 85.41,-54.97 101.44,-59.71"/>
<polygon fill="black" stroke="black" points="100,-62.93 110.59,-62.41 101.99,-56.22 100,-62.93"/>
<text text-anchor="middle" x="82.12" y="-58.45" font-family="Times New Roman,serif" font-size="14.00">101</text>
</g>
<!-- 3 -->
<g id="node3" class="node">
<title>3</title>
<ellipse fill="none" stroke="black" cx="357.75" cy="-18" rx="27" ry="18"/>
<text text-anchor="middle" x="357.75" y="-12.57" font-family="Times New Roman,serif" font-size="14.00">3</text>
</g>
<!-- 0&#45;&gt;3 -->
<g id="edge2" class="edge">
<title>0&#45;&gt;3</title>
<path fill="none" stroke="black" d="M54.35,-36.4C112.56,-32.86 252.28,-24.36 319.45,-20.27"/>
<polygon fill="black" stroke="black" points="319.45,-23.78 329.22,-19.67 319.03,-16.79 319.45,-23.78"/>
<text text-anchor="middle" x="192.38" y="-31.45" font-family="Times New Roman,serif" font-size="14.00">103</text>
</g>
<!-- 2 -->
<g id="node4" class="node">
<title>2</title>
<ellipse fill="none" stroke="black" cx="247.5" cy="-72" rx="27" ry="18"/>
<text text-anchor="middle" x="247.5" y="-66.58" font-family="Times New Roman,serif" font-size="14.00">2</text>
</g>
<!-- 1&#45;&gt;2 -->
<g id="edge3" class="edge">
<title>1&#45;&gt;2</title>
<path fill="none" stroke="black" d="M164.73,-70.49C178.07,-70.74 194.46,-71.04 209.06,-71.31"/>
<polygon fill="black" stroke="black" points="208.72,-74.8 218.78,-71.49 208.85,-67.8 208.72,-74.8"/>
<text text-anchor="middle" x="192.38" y="-73.45" font-family="Times New Roman,serif" font-size="14.00">102</text>
</g>
<!-- 4 -->
<g id="node5" class="node">
<title>4</title>
<ellipse fill="lightgreen" stroke="lightcoral" cx="573.25" cy="-62" rx="18" ry="18"/>
<ellipse fill="none" stroke="lightcoral" cx="573.25" cy="-62" rx="22" ry="22"/>
<text text-anchor="middle" x="573.25" y="-56.58" font-family="Times New Roman,serif" font-size="14.00">4</text>
</g>
<!-- 3&#45;&gt;4 -->
<g id="edge6" class="edge">
<title>3&#45;&gt;4</title>
<path fill="none" stroke="black" d="M384.61,-14.52C412.39,-11.63 457.6,-9.41 495,-19.25 512.89,-23.96 531.09,-33.73 545.32,-42.74"/>
<polygon fill="black" stroke="black" points="543.39,-45.66 553.66,-48.26 547.25,-39.82 543.39,-45.66"/>
<text text-anchor="middle" x="468" y="-22.45" font-family="Times New Roman,serif" font-size="14.00">104</text>
</g>
<!-- 5 -->
<g id="node7" class="node">
<title>5</title>
<ellipse fill="none" stroke="black" cx="468" cy="-62" rx="27" ry="18"/>
<text text-anchor="middle" x="468" y="-56.58" font-family="Times New Roman,serif" font-size="14.00">5</text>
</g>
<!-- 3&#45;&gt;5 -->
<g id="edge7" class="edge">
<title>3&#45;&gt;5</title>
<path fill="none" stroke="black" d="M381.44,-27.22C396.6,-33.38 416.78,-41.59 433.74,-48.48"/>
<polygon fill="black" stroke="black" points="432.35,-51.7 442.93,-52.22 434.99,-45.21 432.35,-51.7"/>
<text text-anchor="middle" x="412.88" y="-46.45" font-family="Times New Roman,serif" font-size="14.00">105</text>
</g>
<!-- 2&#45;&gt;4 -->
<g id="edge4" class="edge">
<title>2&#45;&gt;4</title>
<path fill="none" stroke="black" d="M269.57,-82.85C276.7,-86.18 284.81,-89.59 292.5,-92 308.99,-97.17 313.54,-97.44 330.75,-99 420.7,-107.16 447.73,-111.05 533.25,-82 536.6,-80.86 540.02,-79.48 543.37,-77.97"/>
<polygon fill="black" stroke="black" points="544.89,-81.13 552.34,-73.58 541.82,-74.84 544.89,-81.13"/>
<text text-anchor="middle" x="412.88" y="-106.45" font-family="Times New Roman,serif" font-size="14.00">109</text>
</g>
<!-- 6 -->
<g id="node6" class="node">
<title>6</title>
<ellipse fill="none" stroke="black" cx="357.75" cy="-72" rx="27" ry="18"/>
<text text-anchor="middle" x="357.75" y="-66.58" font-family="Times New Roman,serif" font-size="14.00">6</text>
</g>
<!-- 2&#45;&gt;6 -->
<g id="edge5" class="edge">
<title>2&#45;&gt;6</title>
<path fill="none" stroke="black" d="M274.98,-72C288.32,-72 304.71,-72 319.31,-72"/>
<polygon fill="black" stroke="black" points="319.03,-75.5 329.03,-72 319.03,-68.5 319.03,-75.5"/>
<text text-anchor="middle" x="302.62" y="-74.45" font-family="Times New Roman,serif" font-size="14.00">108</text>
</g>
<!-- 6&#45;&gt;5 -->
<g id="edge9" class="edge">
<title>6&#45;&gt;5</title>
<path fill="none" stroke="black" d="M384.95,-69.58C398.38,-68.34 414.97,-66.81 429.71,-65.44"/>
<polygon fill="black" stroke="black" points="429.89,-68.94 439.53,-64.54 429.25,-61.97 429.89,-68.94"/>
<text text-anchor="middle" x="412.88" y="-69.45" font-family="Times New Roman,serif" font-size="14.00">106</text>
</g>
<!-- 5&#45;&gt;4 -->
<g id="edge8" class="edge">
<title>5&#45;&gt;4</title>
<path fill="none" stroke="black" d="M495.32,-62C508.76,-62 525.25,-62 539.51,-62"/>
<polygon fill="black" stroke="black" points="539.33,-65.5 549.33,-62 539.33,-58.5 539.33,-65.5"/>
<text text-anchor="middle" x="523.12" y="-64.45" font-family="Times New Roman,serif" font-size="14.00">107</text>
</g>
</g>
</svg>
