<?xml version="1.0" encoding="UTF-8" standalone="no"?>
<!DOCTYPE svg PUBLIC "-//W3C//DTD SVG 1.1//EN"
 "http://www.w3.org/Graphics/SVG/1.1/DTD/svg11.dtd">
<!-- Generated by graphviz version 10.0.1 (20240210.2158)
 -->
<!-- Title: G Pages: 1 -->
<svg width="595pt" height="124pt"
 viewBox="0.00 0.00 595.25 123.75" xmlns="http://www.w3.org/2000/svg" xmlns:xlink="http://www.w3.org/1999/xlink">
<g id="graph0" class="graph" transform="scale(1 1) rotate(0) translate(4 119.75)">
<title>G</title>
<polygon fill="white" stroke="none" points="-4,4 -4,-119.75 591.25,-119.75 591.25,4 -4,4"/>
<!-- 0 -->
<g id="node1" class="node">
<title>0</title>
<ellipse fill="none" stroke="black" cx="27" cy="-38" rx="27" ry="18"/>
<text text-anchor="middle" x="27" y="-32.58" font-family="Times New Roman,serif" font-size="14.00">0</text>
</g>
<!-- 1 -->
<g id="node2" class="node">
<title>1</title>
<ellipse fill="none" stroke="black" cx="137.25" cy="-70" rx="27" ry="18"/>
<text text-anchor="middle" x="137.25" y="-64.58" font-family="Times New Roman,serif" font-size="14.00">1</text>
</g>
<!-- 0&#45;&gt;1 -->
<g id="edge1" class="edge">
<title>0&#45;&gt;1</title>
<path fill="none" stroke="black" d="M52.29,-45.18C66.78,-49.46 85.41,-54.97 101.44,-59.71"/>
<polygon fill="black" stroke="black" points="100,-62.93 110.59,-62.41 101.99,-56.22 100,-62.93"/>
<text text-anchor="middle" x="82.12" y="-58.45" font-family="Times New Roman,serif" font-size="14.00">101</text>
</g>
<!-- 3 -->
<g id="node3" class="node">
<title>3</title>
<ellipse fill="none" stroke="black" cx="357.75" cy="-18" rx="27" ry="18"/>
<text text-anchor="middle" x="357.75" y="-12.57" font-family="Times New Roman,serif" font-size="14.00">3</text>
</g>
<!-- 0&#45;&gt;3 -->
<g id="edge2" class="edge">
<title>0&#45;&gt;3</title>
<path fill="none" stroke="black" d="M54.35,-36.4C112.56,-32.86 252.28,-24.36 319.45,-20.27"/>
<polygon fill="black" stroke="black" points="319.45,-23.78 329.22,-19.67 319.03,-16.79 319.45,-23.78"/>
<text text-anchor="middle" x="192.38" y="-31.45" font-family="Times New Roman,serif" font-size="14.00">103</text>
</g>
<!-- 2 -->
<g id="node4" class="node">
<title>2</title>
<ellipse fill="none" stroke="black" cx="247.5" cy="-72" rx="27" ry="18"/>
<text text-anchor="middle" x="247.5" y="-66.58" font-family="Times New Roman,serif" font-size="14.00">2</text>
</g>
<!-- 1&#45;&gt;2 -->
<g id="edge3" class="edge">
<title>1&#45;&gt;2</title>
<path fill="none" stroke="black" d="M164.73,-70.49C178.07,-70.74 194.46,-71.04 209.06,-71.31"/>
<polygon fill="black" stroke="black" points="208.72,-74.8 218.78,-71.49 208.85,-67.8 208.72,-74.8"/>
<text text-anchor="middle" x="192.38" y="-73.45" font-family="Times New Roman,serif" font-size="14.00">102</text>
</g>
<!-- 4 -->
<g id="node5" class="node">
<title>4</title>
<ellipse fill="lightgreen" stroke="black" cx="569.25" cy="-62" rx="18" ry="18"/>
<text text-anchor="middle" x="569.25" y="-56.58" font-family="Times New Roman,serif" font-size="14.00">4</text>
</g>
<!-- 3&#45;&gt;4 -->
<g id="edge6" class="edge">
<title>3&#45;&gt;4</title>
<path fill="none" stroke="black" d="M384.66,-14.35C412.48,-11.32 457.71,-8.98 495,-19.25 513.28,-24.28 531.7,-35.07 545.49,-44.54"/>
<polygon fill="black" stroke="black" points="543.26,-47.25 553.43,-50.23 547.34,-41.56 543.26,-47.25"/>
<text text-anchor="middle" x="468" y="-22.45" font-family="Times New Roman,serif" font-size="14.00">104</text>
</g>
<!-- 5 -->
<g id="node7" class="node">
<title>5</title>
<ellipse fill="none" stroke="black" cx="468" cy="-62" rx="27" ry="18"/>
<text text-anchor="middle" x="468" y="-56.58" font-family="Times New Roman,serif" font-size="14.00">5</text>
</g>
<!-- 3&#45;&gt;5 -->
<g id="edge7" class="edge">
<title>3&#45;&gt;5</title>
<path fill="none" stroke="black" d="M381.44,-27.22C396.6,-33.38 416.78,-41.59 433.74,-48.48"/>
<polygon fill="black" stroke="black" points="432.35,-51.7 442.93,-52.22 434.99,-45.21 432.35,-51.7"/>
<text text-anchor="middle" x="412.88" y="-46.45" font-family="Times New Roman,serif" font-size="14.00">105</text>
</g>
<!-- 2&#45;&gt;4 -->
<g id="edge4" class="edge">
<title>2&#45;&gt;4</title>
<path fill="none" stroke="black" d="M269.57,-82.85C276.7,-86.18 284.81,-89.59 292.5,-92 308.99,-97.17 313.54,-97.44 330.75,-99 403.59,-105.61 422.54,-98.9 495,-89 512.12,-86.66 517.02,-87.93 533.25,-82 536.8,-80.7 540.41,-79.06 543.9,-77.28"/>
<polygon fill="black" stroke="black" points="545.47,-80.41 552.48,-72.47 542.05,-74.31 545.47,-80.41"/>
<text text-anchor="middle" x="412.88" y="-102.45" font-family="Times New Roman,serif" font-size="14.00">109</text>
</g>
<!-- 6 -->
<g id="node6" class="node">
<title>6</title>
<ellipse fill="lightcoral" stroke="black" cx="357.75" cy="-72" rx="18" ry="18"/>
<text text-anchor="middle" x="357.75" y="-66.58" font-family="Times New Roman,serif" font-size="14.00">6</text>
</g>
<!-- 2&#45;&gt;6 -->
<g id="edge5" class="edge">
<title>2&#45;&gt;6</title>
<path fill="none" stroke="black" d="M274.98,-72C291.1,-72 311.69,-72 328.17,-72"/>
<polygon fill="black" stroke="black" points="327.81,-75.5 337.81,-72 327.81,-68.5 327.81,-75.5"/>
<text text-anchor="middle" x="302.62" y="-74.45" font-family="Times New Roman,serif" font-size="14.00">108</text>
</g>
<!-- 6&#45;&gt;5 -->
<g id="edge9" class="edge">
<title>6&#45;&gt;5</title>
<path fill="none" stroke="black" d="M376.14,-70.39C390.46,-69.07 411.26,-67.15 429.36,-65.48"/>
<polygon fill="black" stroke="black" points="429.61,-68.97 439.25,-64.56 428.97,-62 429.61,-68.97"/>
<text text-anchor="middle" x="412.88" y="-69.45" font-family="Times New Roman,serif" font-size="14.00">106</text>
</g>
<!-- 5&#45;&gt;4 -->
<g id="edge8" class="edge">
<title>5&#45;&gt;4</title>
<path fill="none" stroke="black" d="M495.34,-62C508.93,-62 525.53,-62 539.46,-62"/>
<polygon fill="black" stroke="black" points="539.36,-65.5 549.36,-62 539.36,-58.5 539.36,-65.5"/>
<text text-anchor="middle" x="523.12" y="-64.45" font-family="Times New Roman,serif" font-size="14.00">107</text>
</g>
</g>
</svg>
