<?xml version="1.0" encoding="UTF-8" standalone="no"?>
<!DOCTYPE svg PUBLIC "-//W3C//DTD SVG 1.1//EN"
 "http://www.w3.org/Graphics/SVG/1.1/DTD/svg11.dtd">
<!-- Generated by graphviz version 10.0.1 (20240210.2158)
 -->
<!-- Title: G Pages: 1 -->
<svg width="283pt" height="152pt"
 viewBox="0.00 0.00 282.50 152.00" xmlns="http://www.w3.org/2000/svg" xmlns:xlink="http://www.w3.org/1999/xlink">
<g id="graph0" class="graph" transform="scale(1 1) rotate(0) translate(4 148)">
<title>G</title>
<polygon fill="white" stroke="none" points="-4,4 -4,-148 278.5,-148 278.5,4 -4,4"/>
<!-- 0 -->
<g id="node1" class="node">
<title>0</title>
<ellipse fill="none" stroke="black" cx="137.25" cy="-45" rx="27" ry="18"/>
<text text-anchor="middle" x="137.25" y="-39.58" font-family="Times New Roman,serif" font-size="14.00">0</text>
</g>
<!-- 5 -->
<g id="node2" class="node">
<title>5</title>
<ellipse fill="lightcoral" stroke="black" cx="247.5" cy="-45" rx="18" ry="18"/>
<text text-anchor="middle" x="247.5" y="-39.58" font-family="Times New Roman,serif" font-size="14.00">5</text>
</g>
<!-- 0&#45;&gt;5 -->
<g id="edge1" class="edge">
<title>0&#45;&gt;5</title>
<path fill="none" stroke="lightcoral" d="M164.73,-45C180.85,-45 201.44,-45 217.92,-45"/>
<polygon fill="lightcoral" stroke="lightcoral" points="217.56,-48.5 227.56,-45 217.56,-41.5 217.56,-48.5"/>
<text text-anchor="middle" x="192.38" y="-47.45" font-family="Times New Roman,serif" font-size="14.00">101</text>
</g>
<!-- 1 -->
<g id="node3" class="node">
<title>1</title>
<ellipse fill="none" stroke="black" cx="137.25" cy="-126" rx="27" ry="18"/>
<text text-anchor="middle" x="137.25" y="-120.58" font-family="Times New Roman,serif" font-size="14.00">1</text>
</g>
<!-- 6 -->
<g id="node4" class="node">
<title>6</title>
<ellipse fill="none" stroke="black" cx="247.5" cy="-126" rx="27" ry="18"/>
<text text-anchor="middle" x="247.5" y="-120.58" font-family="Times New Roman,serif" font-size="14.00">6</text>
</g>
<!-- 1&#45;&gt;6 -->
<g id="edge2" class="edge">
<title>1&#45;&gt;6</title>
<path fill="none" stroke="black" d="M164.73,-126C178.07,-126 194.46,-126 209.06,-126"/>
<polygon fill="black" stroke="black" points="208.78,-129.5 218.78,-126 208.78,-122.5 208.78,-129.5"/>
<text text-anchor="middle" x="192.38" y="-128.45" font-family="Times New Roman,serif" font-size="14.00">102</text>
</g>
<!-- 2 -->
<g id="node5" class="node">
<title>2</title>
<ellipse fill="none" stroke="black" cx="27" cy="-126" rx="27" ry="18"/>
<text text-anchor="middle" x="27" y="-120.58" font-family="Times New Roman,serif" font-size="14.00">2</text>
</g>
<!-- 2&#45;&gt;1 -->
<g id="edge3" class="edge">
<title>2&#45;&gt;1</title>
<path fill="none" stroke="black" d="M54.48,-126C67.82,-126 84.21,-126 98.81,-126"/>
<polygon fill="black" stroke="black" points="98.53,-129.5 108.53,-126 98.53,-122.5 98.53,-129.5"/>
<text text-anchor="middle" x="82.12" y="-128.45" font-family="Times New Roman,serif" font-size="14.00">103</text>
</g>
<!-- 3 -->
<g id="node6" class="node">
<title>3</title>
<ellipse fill="none" stroke="black" cx="27" cy="-72" rx="27" ry="18"/>
<text text-anchor="middle" x="27" y="-66.58" font-family="Times New Roman,serif" font-size="14.00">3</text>
</g>
<!-- 3&#45;&gt;0 -->
<g id="edge4" class="edge">
<title>3&#45;&gt;0</title>
<path fill="none" stroke="black" d="M52.83,-65.81C67,-62.27 84.99,-57.78 100.64,-53.88"/>
<polygon fill="black" stroke="black" points="101.21,-57.35 110.06,-51.53 99.51,-50.56 101.21,-57.35"/>
<text text-anchor="middle" x="82.12" y="-63.45" font-family="Times New Roman,serif" font-size="14.00">104</text>
</g>
<!-- 4 -->
<g id="node7" class="node">
<title>4</title>
<ellipse fill="lightgreen" stroke="black" cx="27" cy="-18" rx="18" ry="18"/>
<text text-anchor="middle" x="27" y="-12.57" font-family="Times New Roman,serif" font-size="14.00">4</text>
</g>
<!-- 4&#45;&gt;0 -->
<g id="edge5" class="edge">
<title>4&#45;&gt;0</title>
<path fill="none" stroke="lightcoral" d="M44.91,-22.22C59.69,-25.9 81.63,-31.38 100.3,-36.03"/>
<polygon fill="lightcoral" stroke="lightcoral" points="99.4,-39.42 109.95,-38.44 101.09,-32.62 99.4,-39.42"/>
<text text-anchor="middle" x="82.12" y="-36.45" font-family="Times New Roman,serif" font-size="14.00">105</text>
</g>
</g>
</svg>
